<?xml version="1.0" encoding="UTF-8" standalone="no"?>
<svg
   xmlns:dc="http://purl.org/dc/elements/1.1/"
   xmlns:cc="http://creativecommons.org/ns#"
   xmlns:rdf="http://www.w3.org/1999/02/22-rdf-syntax-ns#"
   xmlns:svg="http://www.w3.org/2000/svg"
   xmlns="http://www.w3.org/2000/svg"
   xmlns:sodipodi="http://sodipodi.sourceforge.net/DTD/sodipodi-0.dtd"
   xmlns:inkscape="http://www.inkscape.org/namespaces/inkscape"
   height="1000"
   width="1000"
   version="1.1"
   id="svg897"
   sodipodi:docname="Angel.co.svg"
   inkscape:version="1.0.1 (3bc2e813f5, 2020-09-07)">
  <defs
     id="defs953" />
  <metadata
     id="metadata901">
    <rdf:RDF>
      <cc:Work
         rdf:about="">
        <dc:format>image/svg+xml</dc:format>
        <dc:type
           rdf:resource="http://purl.org/dc/dcmitype/StillImage" />
        <dc:title></dc:title>
      </cc:Work>
    </rdf:RDF>
  </metadata>
  <sodipodi:namedview
     pagecolor="#ffffff"
     bordercolor="#666666"
     borderopacity="1"
     objecttolerance="10"
     gridtolerance="10"
     guidetolerance="10"
     inkscape:pageopacity="0"
     inkscape:pageshadow="2"
     inkscape:window-width="3840"
     inkscape:window-height="2088"
     id="namedview899"
     showgrid="false"
     inkscape:zoom="1.008"
     inkscape:cx="191.4539"
     inkscape:cy="585.3849"
     inkscape:window-x="0"
     inkscape:window-y="35"
     inkscape:window-maximized="1"
     inkscape:current-layer="g895"
     inkscape:document-rotation="0" />
  <g
     fill-rule="evenodd"
     id="g895"
     transform="matrix(31.847134,0,0,31.847134,152.86624,-3.8e-6)">
    <path
       id="path955"
       style="fill:#dadada;fill-opacity:1;stroke-width:1.75797;stop-color:#000000"
       d="M 500,0 C 367.39176,0 240.2148,52.67842 146.44661,146.44661 52.67842,240.2148 0,367.39176 0,500 0,632.60824 52.67842,759.7852 146.44661,853.55339 240.2148,947.32158 367.39176,1000 500,1000 632.60824,1000 759.7852,947.32158 853.55339,853.55339 947.32158,759.7852 1000,632.60824 1000,500 1000,367.39176 947.32158,240.2148 853.55339,146.44661 759.7852,52.67842 632.60824,0 500,0 Z M 396.28516,104.91602 c 33.70754,0 77.78566,77.78696 132.23632,235.95312 10.37156,25.92885 15.55838,46.67318 20.74414,62.23047 5.18577,-10.37153 10.3717,-28.52254 18.1504,-49.26563 54.45063,-155.57326 101.12146,-233.35937 137.42187,-233.35937 18.15022,0 33.70742,5.18595 46.67188,18.15039 10.37159,12.96444 18.15039,31.11432 18.15039,51.85742 0,15.55733 -5.18594,46.67091 -18.15039,90.75 -15.55733,44.0791 -33.70784,101.12287 -59.63672,171.13086 33.70754,5.18577 57.04335,20.74324 70.00781,41.48633 12.96439,20.74309 20.74414,57.04284 20.74414,103.71484 0,93.34392 -28.52284,171.13115 -85.56641,230.76758 -57.0435,59.6364 -129.64256,90.75195 -217.80078,90.75195 -33.70752,0 -67.41551,-5.18593 -101.12304,-18.15039 -33.70754,-12.96445 -59.63667,-31.1143 -82.97266,-51.85742 -25.92888,-23.33599 -46.67228,-51.85819 -59.63672,-77.78711 -10.37155,-28.52175 -18.15039,-57.04465 -18.15039,-85.5664 0,-31.11469 7.77971,-57.04314 20.74414,-75.19336 12.96444,-18.15023 36.30051,-28.52212 64.82227,-36.30078 -5.18578,-12.96443 -10.37197,-23.33548 -12.96485,-33.70704 -2.59287,-7.77863 -5.18554,-15.55639 -5.18554,-20.74218 0,-15.55733 7.77751,-33.70919 25.92773,-51.85938 18.15022,-18.15019 33.7083,-25.92773 49.26563,-25.92773 7.77865,0 12.96352,-8.8e-4 20.74218,2.59179 7.77867,2.59268 15.55814,5.18622 25.92969,12.96485 -23.33599,-77.78644 -46.67228,-142.60841 -59.63672,-186.6875 -12.96444,-44.07909 -18.15039,-72.59979 -18.15039,-90.75 0,-23.33599 5.18595,-41.48673 18.15039,-54.45117 10.37155,-12.96444 28.52252,-20.74414 49.26563,-20.74414 z m 3.19615,61.44672 c -6.41943,0 -10.69919,2.14031 -14.9788,6.41994 -6.41942,6.41943 -8.56047,12.83791 -8.56047,21.39714 0,14.97865 6.42028,38.51656 17.11932,72.75348 10.69904,34.23693 33.81774,99.31309 55.21582,154.9481 2.13982,-4.27963 4.27924,-6.41994 8.55885,-6.41994 4.27962,-2.13964 8.57384,-2.13891 12.83829,-2.13891 h 10.69937 c 6.41942,2.13964 14.97827,2.1394 27.81708,4.27943 L 450.83603,256.23554 c -12.83884,-36.37674 -21.39836,-62.05444 -29.95759,-72.75348 -6.41942,-10.69904 -12.8379,-17.11932 -21.39713,-17.11932 z m 298.73564,19.43569 c -8.43166,0 -16.86379,6.32439 -25.29541,21.07977 -8.43163,14.75538 -18.9715,35.83469 -29.51105,67.45336 l -52.37359,140.6895 56.91348,10.53989 c 21.07909,-54.80571 41.83471,-111.17926 54.48221,-147.01375 10.53954,-35.83449 16.86254,-56.9147 16.86255,-65.34634 0,-8.43165 -2.10667,-14.75446 -6.32267,-21.07819 -4.21583,-4.21583 -8.43182,-6.32424 -14.75552,-6.32424 z m -203.4025,279.1586 c -12.96439,0 -23.33568,2.59133 -28.52148,7.77735 -5.18576,5.18576 -7.7793,12.9644 -7.7793,23.33593 0,25.92892 12.96458,34.07961 41.48633,44.45117 28.52175,10.37156 75.1945,18.1504 137.42383,18.1504 h 23.33594 c 5.18579,0 10.37002,2.59245 12.96289,5.18554 2.59299,5.18583 5.1875,10.37173 5.1875,18.15039 -5.18577,5.18577 -6.15145,12.96548 -26.89454,20.74414 -20.74312,7.7787 -37.70659,15.55728 -48.07812,23.33594 -23.33599,15.55739 -37.48675,36.29878 -50.45117,59.63477 -12.96446,23.33598 -20.74414,44.0792 -20.74414,64.82226 0,12.96446 2.59334,25.92989 7.77929,44.08008 5.1858,18.15022 7.7793,28.5223 7.7793,31.11523 v 10.3711 c -15.55732,0 -46.523,-10.37126 -56.89453,-28.52149 -10.37159,-18.15019 -6.96289,-41.48688 -6.96289,-72.60156 v -5.18555 c -2.59268,2.593 -5.18643,5.18555 -7.7793,5.18555 -2.59267,0 -5.18529,2.5918 -10.37109,2.5918 h -10.37109 c -2.5929,0 -5.18728,-2.5918 -10.37305,-2.5918 0,5.18577 2.59375,7.77908 2.59375,12.96484 v 10.3711 c 0,12.96446 -5.18704,25.92925 -15.5586,36.30078 -10.37155,10.37156 -23.33525,15.55664 -38.89257,15.55664 -23.33599,0 -46.67269,-10.37108 -72.60157,-33.70703 -23.33599,-23.33599 -36.29882,-44.08003 -36.29882,-67.41602 0,-5.18576 -0.001,-7.77816 2.59179,-10.37109 0,-12.96443 10.5926,-21.55749 13.18555,-24.15039 5.18578,5.18576 12.96548,15.55703 20.74414,28.52148 23.33599,33.70755 46.67096,51.85938 67.41406,51.85938 7.77867,0 4.96462,3.40637 10.15039,-1.7793 5.18578,-5.18579 7.7793,-10.37194 7.7793,-12.96484 0,-5.18577 -2.59244,-15.55703 -10.37109,-28.52149 -7.77866,-12.96445 -18.1508,-28.52076 -31.11524,-44.07812 -15.55732,-18.15019 -28.52212,-33.70764 -36.30078,-41.48633 -10.37155,-7.77866 -14.15016,-6.96484 -19.33594,-6.96484 -12.96444,0 -25.92923,7.77776 -36.30078,20.74218 -10.37155,12.96443 -13.55664,27.11541 -13.55664,45.26563 0,15.55729 2.59241,27.1143 10.3711,47.85742 7.77866,18.15022 18.1497,38.89281 33.70703,57.04297 23.33599,25.92892 43.26511,41.26494 76.97265,56.82227 33.70754,15.55732 67.41613,23.33593 108.90235,23.33593 72.60082,0 120.23708,-29.92827 169.50195,-84.3789 49.26484,-54.45061 70.59961,-107.86547 70.59961,-190.83789 0,-25.92883 -2.59243,-34.0794 -5.18555,-49.63672 -2.59299,-15.55733 -10.37173,-25.92944 -18.15039,-31.11524 -15.55732,-12.96446 -30.07909,-23.33547 -74.1582,-33.70703 -44.07908,-10.37153 -90.74987,-15.55664 -137.42188,-15.55664 z m -114.24677,56.33761 c -5.30038,0 -10.60132,3.53314 -17.66851,10.60031 -7.06718,7.06719 -8.83426,12.36736 -8.83426,19.43457 0,5.30036 3.53388,15.90126 8.83426,28.26882 7.06719,12.36758 14.13461,24.7361 24.73539,38.87047 10.60077,14.13438 21.20148,26.50169 31.80226,35.33569 10.60077,3.53358 17.6682,7.06687 24.73538,7.06687 3.53358,0 8.83409,-1.76706 12.36769,-5.30081 3.53363,-3.53359 5.2995,-8.83277 5.2995,-12.36637 0,-5.30039 -3.53312,-15.90168 -10.60031,-33.56965 -7.0672,-17.66794 -15.90199,-35.33566 -26.50278,-51.23682 -7.06717,-12.36756 -15.90082,-22.96843 -22.968,-28.26882 -7.06718,-7.06722 -14.13343,-8.83426 -21.20062,-8.83426 z m 115.5216,60.84798 c 4.42569,11.06434 8.85085,19.91611 13.27661,30.98043 4.42569,11.06432 6.63825,19.91608 8.85107,30.98043 6.63862,-8.85147 15.49149,-17.70339 24.34296,-26.5549 11.06435,-8.85144 19.91535,-15.49075 28.76682,-22.12935 -13.27722,0 -26.5543,-2.21247 -39.8315,-4.42554 -13.27722,-2.21269 -24.34165,-4.42535 -35.40596,-8.85107 z"
       transform="matrix(0.0314,0,0,0.0314,-4.7999999,1.1932e-7)"
       sodipodi:nodetypes="sssssssssscccscsccsssssccssccsssscsscsssssccsccccsssccccscsscssssccscsssscsscssscsssscscccssssccsssccssssscssssscscscssccscsccccc" />
  </g>
</svg>
