<?xml version="1.0" encoding="UTF-8" standalone="no"?>
<svg
   xmlns:dc="http://purl.org/dc/elements/1.1/"
   xmlns:cc="http://creativecommons.org/ns#"
   xmlns:rdf="http://www.w3.org/1999/02/22-rdf-syntax-ns#"
   xmlns:svg="http://www.w3.org/2000/svg"
   xmlns="http://www.w3.org/2000/svg"
   xmlns:sodipodi="http://sodipodi.sourceforge.net/DTD/sodipodi-0.dtd"
   xmlns:inkscape="http://www.inkscape.org/namespaces/inkscape"
   width="1000"
   height="1000"
   viewBox="0 0 937.5 937.50002"
   id="svg2"
   version="1.1"
   inkscape:version="1.0.1 (3bc2e813f5, 2020-09-07)"
   sodipodi:docname="Blogger.svg">
  <title
     id="title4226">Blogger logo</title>
  <defs
     id="defs4" />
  <sodipodi:namedview
     id="base"
     pagecolor="#ffffff"
     bordercolor="#666666"
     borderopacity="1.0"
     inkscape:pageopacity="0.0"
     inkscape:pageshadow="2"
     inkscape:zoom="1"
     inkscape:cx="201.85695"
     inkscape:cy="442.06565"
     inkscape:document-units="px"
     inkscape:current-layer="g4149"
     showgrid="false"
     fit-margin-top="0"
     fit-margin-left="0"
     fit-margin-right="0"
     fit-margin-bottom="0"
     inkscape:window-width="3840"
     inkscape:window-height="2088"
     inkscape:window-x="0"
     inkscape:window-y="35"
     inkscape:window-maximized="1"
     inkscape:document-rotation="0"
     units="px" />
  <metadata
     id="metadata7">
    <rdf:RDF>
      <cc:Work
         rdf:about="">
        <dc:format>image/svg+xml</dc:format>
        <dc:type
           rdf:resource="http://purl.org/dc/dcmitype/StillImage" />
        <dc:title>Blogger logo</dc:title>
        <cc:license
           rdf:resource="http://creativecommons.org/licenses/by-sa/4.0/" />
        <dc:date>14/11/2016</dc:date>
        <dc:creator>
          <cc:Agent>
            <dc:title>Google, Inc.</dc:title>
          </cc:Agent>
        </dc:creator>
        <dc:publisher>
          <cc:Agent>
            <dc:title>CMetalCore</dc:title>
          </cc:Agent>
        </dc:publisher>
      </cc:Work>
      <cc:License
         rdf:about="http://creativecommons.org/licenses/by-sa/4.0/">
        <cc:permits
           rdf:resource="http://creativecommons.org/ns#Reproduction" />
        <cc:permits
           rdf:resource="http://creativecommons.org/ns#Distribution" />
        <cc:requires
           rdf:resource="http://creativecommons.org/ns#Notice" />
        <cc:requires
           rdf:resource="http://creativecommons.org/ns#Attribution" />
        <cc:permits
           rdf:resource="http://creativecommons.org/ns#DerivativeWorks" />
        <cc:requires
           rdf:resource="http://creativecommons.org/ns#ShareAlike" />
      </cc:License>
    </rdf:RDF>
  </metadata>
  <g
     inkscape:label="Capa 1"
     inkscape:groupmode="layer"
     id="layer1"
     transform="translate(-157.76392,-165.65276)">
    <g
       id="g4149"
       transform="translate(233.34014,-698.87178)">
      <path
         id="path943"
         style="fill:#dadada;fill-opacity:1;stroke-width:1"
         d="M 500 0 A 499.99999 499.99999 0 0 0 0 500 A 499.99999 499.99999 0 0 0 500 1000 A 499.99999 499.99999 0 0 0 1000 500 A 499.99999 499.99999 0 0 0 500 0 z M 425.5625 215.55859 C 429.17163 215.54672 432.94353 215.54677 436.89062 215.55859 C 445.91252 215.58526 455.8503 215.66763 466.85938 215.79883 C 522.98922 216.46197 539.75231 217.24178 547.23633 219.51367 C 578.49795 229.00402 605.88704 245.93495 630.44141 270.95703 C 664.90786 306.07938 682.35315 344.98956 682.41992 386.90625 C 682.45487 408.84406 685.96752 416.92923 698.73633 424.41211 C 706.78616 429.12976 709.64308 429.62576 735.14648 430.75781 C 750.36624 431.43312 764.64306 432.97673 766.87109 434.1875 C 774.11151 438.1235 780.45289 447.56546 782.69141 457.73047 C 784.23599 464.74359 784.67029 492.52394 784.1543 551.83594 C 783.47067 630.42111 783.15266 636.93241 779.42188 650.31641 C 770.44128 682.53422 756.69506 706.81435 734.74219 729.24219 C 704.39616 760.24496 672.05804 776.78714 630.7793 782.41797 C 607.04448 785.65552 375.28614 784.81004 356.50195 781.41602 C 317.02989 774.28567 277.55051 749.03876 251.20703 714.07812 C 237.37865 695.72645 230.66465 682.78929 224.01172 661.68945 C 215.95958 636.15132 215.07169 617.23002 215.87695 488.36133 C 216.51972 385.49562 217.05421 367.59326 219.77539 356.41992 C 234.26349 296.93118 273.9842 250.52769 329.26172 228.50977 C 353.8572 218.71317 371.42562 215.73677 425.5625 215.55859 z M 448.43359 366.50391 C 386.38266 366.50391 383.64556 366.89196 373.73242 376.90039 C 358.2224 392.55916 366.10213 422.83148 387.20508 428.64844 C 391.20388 429.7503 418.05178 430.39524 451.75391 430.19727 C 506.33328 429.87673 509.78698 429.65036 515.56641 425.98828 C 526.32983 419.1678 531.1543 410.6756 531.1543 398.56445 C 531.1544 385.15485 526.01432 376.73147 514.18945 370.75781 C 506.00671 366.62565 504.13914 366.50391 448.43359 366.50391 z M 537.08984 570.80273 C 526.19728 570.80273 513.76344 570.80377 499.54297 570.82617 C 388.95102 570.91289 385.00267 571.18772 376.00977 579.32617 C 368.87558 585.78249 364.22455 598.50884 365.61328 607.76953 C 367.07114 617.49134 375.50416 628.46111 384.5625 632.4082 C 389.0602 634.36799 413.54051 635.95293 499.95508 634.94141 L 598.29688 633.78906 L 617.16016 630.71289 C 635.5215 620.31353 638.74249 594.98601 623.50586 580.75977 C 614.06657 571.94611 613.33783 570.88379 537.08984 570.81445 L 537.08984 570.80273 z "
         transform="matrix(0.93750001,0,0,0.93750001,-75.57622,864.52454)" />
      <path
         style="fill:#fefefe;fill-opacity:0"
         d="M -158.57144,952.36221 V 780.46222 h 510 510 v 171.89999 171.89999 h -510 -510 z"
         id="path4165"
         inkscape:connector-curvature="0" />
    </g>
  </g>
</svg>
