<?xml version="1.0" encoding="UTF-8" standalone="no"?>
<svg
   xmlns:dc="http://purl.org/dc/elements/1.1/"
   xmlns:cc="http://creativecommons.org/ns#"
   xmlns:rdf="http://www.w3.org/1999/02/22-rdf-syntax-ns#"
   xmlns:svg="http://www.w3.org/2000/svg"
   xmlns="http://www.w3.org/2000/svg"
   xmlns:sodipodi="http://sodipodi.sourceforge.net/DTD/sodipodi-0.dtd"
   xmlns:inkscape="http://www.inkscape.org/namespaces/inkscape"
   width="1000mm"
   height="1000mm"
   viewBox="0 0 1000 1000"
   version="1.1"
   id="svg8"
   inkscape:version="1.0.1 (3bc2e813f5, 2020-09-07)"
   sodipodi:docname="Email.svg">
  <defs
     id="defs2">
    <rect
       x="199.46189"
       y="236.138"
       width="602.29039"
       height="428.88075"
       id="rect843" />
    <rect
       x="-620.96551"
       y="77.327644"
       width="424.06843"
       height="292.38055"
       id="rect837" />
  </defs>
  <sodipodi:namedview
     id="base"
     pagecolor="#ffffff"
     bordercolor="#666666"
     borderopacity="1.0"
     inkscape:pageopacity="0.0"
     inkscape:pageshadow="2"
     inkscape:zoom="0.35"
     inkscape:cx="1234.1895"
     inkscape:cy="2186.0034"
     inkscape:document-units="mm"
     inkscape:current-layer="layer1"
     inkscape:document-rotation="0"
     showgrid="false"
     inkscape:window-width="3840"
     inkscape:window-height="2088"
     inkscape:window-x="0"
     inkscape:window-y="35"
     inkscape:window-maximized="1" />
  <metadata
     id="metadata5">
    <rdf:RDF>
      <cc:Work
         rdf:about="">
        <dc:format>image/svg+xml</dc:format>
        <dc:type
           rdf:resource="http://purl.org/dc/dcmitype/StillImage" />
        <dc:title></dc:title>
      </cc:Work>
    </rdf:RDF>
  </metadata>
  <g
     inkscape:label="Layer 1"
     inkscape:groupmode="layer"
     id="layer1">
    <path
       id="path833"
       style="fill:#dadada;fill-opacity:1;stroke-width:1.75797;stop-color:#000000"
       d="M 1889.5918 0 A 1889.7638 1889.7638 0 0 0 0 1889.7637 A 1889.7638 1889.7638 0 0 0 1889.7637 3779.5273 A 1889.7638 1889.7638 0 0 0 3779.5273 1889.7637 A 1889.7638 1889.7638 0 0 0 1889.7637 0 A 1889.7638 1889.7638 0 0 0 1889.5918 0 z M 1889.7637 590.86133 C 2140.8336 590.86133 2364.5769 646.36933 2560.9922 757.38672 C 2759.1154 866.69604 2912.8313 1020.4139 3022.1406 1218.5371 C 3133.1579 1414.9523 3188.666 1638.6938 3188.666 1889.7637 C 3188.666 2045.188 3167.3161 2183.5338 3124.6172 2304.7988 C 3081.9181 2426.0638 3022.9939 2520.8555 2947.8438 2589.1738 C 2872.6936 2657.4922 2786.4415 2691.6504 2689.0879 2691.6504 C 2601.9819 2691.6504 2530.2492 2665.1771 2473.8867 2612.2305 C 2419.232 2560.9917 2391.9043 2493.5279 2391.9043 2409.8379 L 2391.9043 2312.4844 C 2342.3734 2392.7584 2268.9298 2459.3678 2171.5762 2512.3145 C 2075.9305 2565.2611 1978.5772 2591.7344 1879.5156 2591.7344 C 1746.2949 2591.7344 1627.5918 2561.8449 1523.4062 2502.0664 C 1419.2208 2442.2878 1337.2396 2359.4519 1277.4609 2253.5586 C 1219.3904 2145.9572 1190.3555 2024.6925 1190.3555 1889.7637 C 1190.3555 1754.8351 1220.2448 1634.4247 1280.0234 1528.5312 C 1339.8019 1420.9298 1422.6378 1337.2394 1528.5312 1277.4609 C 1634.4246 1217.6823 1754.8349 1187.793 1889.7637 1187.793 C 2024.6925 1187.793 2145.1028 1217.6823 2250.9961 1277.4609 C 2356.8896 1337.2394 2439.7272 1420.9298 2499.5059 1528.5312 C 2559.2843 1634.4247 2589.1738 1754.8351 2589.1738 1889.7637 L 2589.1738 2330.418 C 2589.1738 2383.3646 2598.566 2423.5008 2617.3535 2450.8281 C 2637.8491 2478.1555 2666.0314 2491.8203 2701.8984 2491.8203 C 2756.5532 2491.8203 2805.2288 2466.1997 2847.9277 2414.9609 C 2892.3347 2363.7222 2926.4949 2292.8421 2950.4062 2202.3203 C 2976.0257 2110.0906 2988.8359 2005.905 2988.8359 1889.7637 C 2988.8359 1677.9768 2941.8655 1489.2481 2847.9277 1323.5762 C 2753.9901 1156.1963 2623.3312 1025.5374 2455.9512 931.59961 C 2290.2792 837.66197 2101.5505 790.69336 1889.7637 790.69336 C 1677.9768 790.69336 1488.3936 837.66197 1321.0137 931.59961 C 1153.6336 1025.5374 1022.9748 1156.1963 929.03711 1323.5762 C 836.80721 1489.2481 790.69336 1677.9768 790.69336 1889.7637 C 790.69336 2103.2586 836.80721 2293.6963 929.03711 2461.0762 C 1022.9748 2626.7481 1152.7792 2755.698 1318.4512 2847.9277 C 1485.8312 2941.8655 1676.2689 2988.8359 1889.7637 2988.8359 C 1964.9138 2988.8359 2044.3334 2980.2964 2128.0234 2963.2168 C 2213.4214 2946.1372 2284.3014 2923.9328 2340.6641 2896.6055 C 2364.5755 2884.6498 2388.487 2878.6719 2412.3984 2878.6719 C 2438.0179 2878.6719 2457.6606 2887.2114 2471.3242 2904.291 C 2484.988 2921.3706 2491.8203 2945.2822 2491.8203 2976.0254 C 2491.8203 3011.8926 2465.3453 3046.0528 2412.3984 3078.5039 C 2361.1597 3110.9552 2289.427 3137.4283 2197.1973 3157.9238 C 2104.9675 3178.4192 2002.489 3188.666 1889.7637 3188.666 C 1638.6938 3188.666 1414.0978 3133.1579 1215.9746 3022.1406 C 1019.5594 2912.8313 865.84356 2759.9681 754.82617 2563.5527 C 645.51685 2365.4295 590.86133 2140.8336 590.86133 1889.7637 C 590.86133 1638.6938 645.51685 1414.9523 754.82617 1218.5371 C 865.84356 1020.4139 1019.5594 866.69604 1215.9746 757.38672 C 1414.0978 646.36933 1638.6938 590.86133 1889.7637 590.86133 z M 1889.7637 1390.1855 C 1792.41 1390.1855 1706.158 1411.5355 1631.0078 1454.2344 C 1555.8577 1496.9334 1496.9334 1556.7123 1454.2344 1633.5703 C 1411.5355 1708.7205 1390.1855 1794.118 1390.1855 1889.7637 C 1390.1855 1987.1173 1410.6809 2074.2238 1451.6719 2151.082 C 1494.3708 2226.2322 1553.297 2285.1564 1628.4473 2327.8555 C 1705.3053 2368.8464 1792.41 2389.3418 1889.7637 2389.3418 C 1985.4094 2389.3418 2070.8069 2367.992 2145.957 2325.293 C 2222.8152 2282.5941 2282.5941 2223.6697 2325.293 2148.5195 C 2367.992 2073.3692 2389.3418 1987.1173 2389.3418 1889.7637 C 2389.3418 1794.118 2367.992 1708.7205 2325.293 1633.5703 C 2282.5941 1556.7123 2222.8152 1496.9334 2145.957 1454.2344 C 2070.8069 1411.5355 1985.4094 1390.1855 1889.7637 1390.1855 z "
       transform="scale(0.26458333)" />
    <text
       xml:space="preserve"
       id="text835"
       style="line-height:1.25;font-family:'DejaVu Sans';font-size:3.88055993px;-inkscape-font-specification:'DejaVu Sans, Normal';white-space:pre;shape-inside:url(#rect837);fill:#ececec;" />
    <g
       aria-label="@"
       transform="matrix(6.404865,0,0,6.404865,-1148.98,-1447.0268)"
       id="text841"
       style="font-size:3.88056px;line-height:1.25;font-family:'DejaVu Sans';-inkscape-font-specification:'DejaVu Sans, Normal';white-space:pre;shape-inside:url(#rect843)" />
  </g>
</svg>
