<?xml version="1.0" encoding="UTF-8" standalone="no"?>
<svg
   xmlns:dc="http://purl.org/dc/elements/1.1/"
   xmlns:cc="http://creativecommons.org/ns#"
   xmlns:rdf="http://www.w3.org/1999/02/22-rdf-syntax-ns#"
   xmlns:svg="http://www.w3.org/2000/svg"
   xmlns="http://www.w3.org/2000/svg"
   xmlns:sodipodi="http://sodipodi.sourceforge.net/DTD/sodipodi-0.dtd"
   xmlns:inkscape="http://www.inkscape.org/namespaces/inkscape"
   width="1000"
   height="1000"
   viewBox="0 0 10418.13 10418.13"
   version="1.1"
   id="svg973"
   sodipodi:docname="Facebook.svg"
   inkscape:version="1.0.1 (3bc2e813f5, 2020-09-07)">
  <metadata
     id="metadata979">
    <rdf:RDF>
      <cc:Work
         rdf:about="">
        <dc:format>image/svg+xml</dc:format>
        <dc:type
           rdf:resource="http://purl.org/dc/dcmitype/StillImage" />
        <dc:title></dc:title>
      </cc:Work>
    </rdf:RDF>
  </metadata>
  <defs
     id="defs977" />
  <sodipodi:namedview
     pagecolor="#ffffff"
     bordercolor="#666666"
     borderopacity="1"
     objecttolerance="10"
     gridtolerance="10"
     guidetolerance="10"
     inkscape:pageopacity="0"
     inkscape:pageshadow="2"
     inkscape:window-width="3840"
     inkscape:window-height="2088"
     id="namedview975"
     showgrid="false"
     inkscape:zoom="0.73839663"
     inkscape:cx="682.56"
     inkscape:cy="682.56"
     inkscape:window-x="0"
     inkscape:window-y="35"
     inkscape:window-maximized="1"
     inkscape:current-layer="svg973" />
  <path
     id="circle969"
     style="fill:#dadada;fill-opacity:1;stroke-width:0.732536"
     d="M 5208.5283,2.5991078e-5 A 5209.0616,5209.0616 0 0 0 0,5209.065 5209.0616,5209.0616 0 0 0 4395.2208,10354.14 V 6715.1538 H 3072.2619 V 5209.065 H 4395.2208 V 4061.1869 c 0,-1306.1111 777.9421,-2026.9341 1967.5801,-2026.9341 569.9128,0 1166.197,101.82 1166.197,101.82 v 1281.9388 h -657.0823 c -647.5616,0 -849.0064,402.159 -849.0064,813.8442 V 5209.065 H 7467.4678 L 7236.7146,6715.1538 H 6022.9092 V 10354.155 A 5209.0616,5209.0616 0 0 0 10418.13,5209.065 5209.0616,5209.0616 0 0 0 5209.065,2.5991078e-5 a 5209.0616,5209.0616 0 0 0 -0.5367,0 z M 5453.1736,10412.391 c -9.7362,0.453 -19.4798,0.898 -29.2299,1.297 a 5209.0616,5209.0616 0 0 0 29.2299,-1.297 z m -42.4362,1.834 c -14.6327,0.562 -29.278,1.064 -43.9416,1.505 a 5209.0616,5209.0616 0 0 0 43.9416,-1.505 z m -48.4432,1.639 c -15.7547,0.461 -31.5202,0.859 -47.3103,1.178 a 5209.0616,5209.0616 0 0 0 47.3103,-1.178 z m -50.8578,1.253 c -16.8186,0.328 -33.6571,0.578 -50.5149,0.744 a 5209.0616,5209.0616 0 0 0 50.5149,-0.744 z m -50.5149,0.744 c -17.0921,0.17 -34.2032,0.267 -51.3348,0.269 a 5209.0616,5209.0616 0 0 0 51.3348,-0.269 z m -147.0733,-0.61 a 5209.0616,5209.0616 0 0 0 38.9184,0.566 c -12.9852,-0.136 -25.9564,-0.337 -38.9184,-0.566 z m 47.3401,0.64 a 5209.0616,5209.0616 0 0 0 47.8767,0.239 c -15.978,0 -31.9332,-0.1 -47.8767,-0.239 z" />
</svg>
