<?xml version="1.0" encoding="UTF-8" standalone="no"?>
<svg
   xmlns:dc="http://purl.org/dc/elements/1.1/"
   xmlns:cc="http://creativecommons.org/ns#"
   xmlns:rdf="http://www.w3.org/1999/02/22-rdf-syntax-ns#"
   xmlns:svg="http://www.w3.org/2000/svg"
   xmlns="http://www.w3.org/2000/svg"
   xmlns:sodipodi="http://sodipodi.sourceforge.net/DTD/sodipodi-0.dtd"
   xmlns:inkscape="http://www.inkscape.org/namespaces/inkscape"
   id="svg2"
   height="1000"
   width="1000"
   version="1.0"
   sodipodi:docname="Flickr.svg"
   inkscape:version="1.0.1 (3bc2e813f5, 2020-09-07)">
  <metadata
     id="metadata895">
    <rdf:RDF>
      <cc:Work
         rdf:about="">
        <dc:format>image/svg+xml</dc:format>
        <dc:type
           rdf:resource="http://purl.org/dc/dcmitype/StillImage" />
        <dc:title></dc:title>
      </cc:Work>
    </rdf:RDF>
  </metadata>
  <sodipodi:namedview
     pagecolor="#ffffff"
     bordercolor="#666666"
     borderopacity="1"
     objecttolerance="10"
     gridtolerance="10"
     guidetolerance="10"
     inkscape:pageopacity="0"
     inkscape:pageshadow="2"
     inkscape:window-width="3840"
     inkscape:window-height="2088"
     id="namedview893"
     showgrid="false"
     inkscape:zoom="1.1932427"
     inkscape:cx="367.01529"
     inkscape:cy="508.32029"
     inkscape:window-x="0"
     inkscape:window-y="35"
     inkscape:window-maximized="1"
     inkscape:current-layer="svg2" />
  <defs
     id="defs4">
    <linearGradient
       id="linearGradient2449"
       y2="425.39999"
       gradientUnits="userSpaceOnUse"
       x2="-395.85001"
       gradientTransform="matrix(-0.59146,0,0,0.59146,-163.62,-176.11)"
       y1="274.70999"
       x1="-344.14999">
      <stop
         id="stop2557"
         stop-color="#fff"
         offset="0" />
      <stop
         id="stop2559"
         stop-color="#fff"
         stop-opacity="0"
         offset="1" />
    </linearGradient>
  </defs>
  <path
     id="path901"
     style="fill:#dadada;fill-opacity:1"
     d="M 500 0 A 500 500 0 0 0 0 500 A 500 500 0 0 0 500 1000 A 500 500 0 0 0 1000 500 A 500 500 0 0 0 500 0 z M 287.51367 319.4668 C 379.27685 319.4668 453.66797 400.29649 453.66797 500 C 453.66797 599.70797 379.28133 680.5332 287.51367 680.5332 C 195.75048 680.5332 121.35742 599.7035 121.35742 500 C 121.35742 400.29202 195.74601 319.4668 287.51367 319.4668 z M 707.69531 319.49414 C 802.10675 319.49414 878.64258 399.24955 878.64258 497.62891 C 878.64258 596.01276 802.10675 675.76562 707.69531 675.76562 C 613.28386 675.76562 536.75 596.00828 536.75 497.62891 C 536.75 399.24507 613.28386 319.49414 707.69531 319.49414 z " />
</svg>
