<?xml version="1.0" encoding="UTF-8" standalone="no"?>
<svg
   xmlns:dc="http://purl.org/dc/elements/1.1/"
   xmlns:cc="http://creativecommons.org/ns#"
   xmlns:rdf="http://www.w3.org/1999/02/22-rdf-syntax-ns#"
   xmlns:svg="http://www.w3.org/2000/svg"
   xmlns="http://www.w3.org/2000/svg"
   xmlns:sodipodi="http://sodipodi.sourceforge.net/DTD/sodipodi-0.dtd"
   xmlns:inkscape="http://www.inkscape.org/namespaces/inkscape"
   width="1000"
   height="1000"
   viewBox="0 0 1000 1000"
   fill="none"
   version="1.1"
   id="svg951"
   sodipodi:docname="Github.svg"
   inkscape:version="1.0.1 (3bc2e813f5, 2020-09-07)">
  <metadata
     id="metadata957">
    <rdf:RDF>
      <cc:Work
         rdf:about="">
        <dc:format>image/svg+xml</dc:format>
        <dc:type
           rdf:resource="http://purl.org/dc/dcmitype/StillImage" />
        <dc:title></dc:title>
      </cc:Work>
    </rdf:RDF>
  </metadata>
  <defs
     id="defs955" />
  <sodipodi:namedview
     pagecolor="#ffffff"
     bordercolor="#666666"
     borderopacity="1"
     objecttolerance="10"
     gridtolerance="10"
     guidetolerance="10"
     inkscape:pageopacity="0"
     inkscape:pageshadow="2"
     inkscape:window-width="3840"
     inkscape:window-height="2088"
     id="namedview953"
     showgrid="false"
     inkscape:zoom="0.984375"
     inkscape:cx="512"
     inkscape:cy="512"
     inkscape:window-x="0"
     inkscape:window-y="35"
     inkscape:window-maximized="1"
     inkscape:current-layer="svg951"
     inkscape:document-rotation="0" />
  <path
     id="path871"
     style="fill:#dadada;fill-opacity:1;stroke-width:1.75797;stop-color:#000000"
     d="M 499.99999,0.005845 A 500,500 0 0 0 -9.9999987e-6,500.00585 500,500 0 0 0 375.81249,984.33788 c 0.29267,-12.04767 0.4375,-19.76572 0.4375,-21.37305 0,-11.875 -0.625,-51.25 -0.625,-93.125 -125.625,23.125 -158.125,-30.625 -168.125,-58.75 -5.625,-14.375 -30,-58.75 -51.25,-70.625 -17.5,-9.375 -42.5,-32.5 -0.625,-33.125 39.375,-0.625 67.5,36.25 76.875,51.25 45,75.625 116.875,54.375 145.625,41.25 4.375,-32.5 17.5,-54.375 31.875,-66.875 -111.25,-12.5 -227.5,-55.625 -227.5,-246.875 0,-54.375 19.375,-99.375 51.25,-134.375 -5,-12.5 -22.5,-63.75 5,-132.5 0,0 41.875,-13.125 137.5,51.25 40,-11.25 82.5,-16.875 125,-16.875 42.5,0 85,5.625 125,16.875 65.74219,-44.6875 106.0787,-52.15295 124.86914,-52.45507 8.54111,-0.13733 12.63086,1.20507 12.63086,1.20507 27.5,68.75 10,120 5,132.5 31.875,35 51.25,79.375 51.25,134.375 0,191.875 -116.875,234.375 -228.125,246.875 18.125,15.625 33.75,45.625 33.75,92.5 0,66.875 -0.625,120.625 -0.625,137.5 0,1.58856 0.14394,9.23424 0.42969,21.05274 A 500,500 0 0 0 1000,500.00585 500,500 0 0 0 499.99999,0.005845 Z M 377.8496,984.85546 a 500,500 0 0 0 1.52539,0.38086 500,500 0 0 1 -1.52539,-0.38086 z m 7.66797,1.86719 a 500,500 0 0 0 1.2539,0.29297 500,500 0 0 1 -1.2539,-0.29297 z m 3.57226,0.82617 a 500,500 0 0 0 1.34766,0.30469 500,500 0 0 1 -1.34766,-0.30469 z m 1.34766,0.30469 a 500,500 0 0 0 1.63477,0.36523 500,500 0 0 1 -1.63477,-0.36523 z m 215.81445,0.73242 a 500,500 0 0 1 -1.73242,0.37304 500,500 0 0 0 1.73242,-0.37304 z m -1.73242,0.37304 a 500,500 0 0 1 -1.20117,0.25586 500,500 0 0 0 1.20117,-0.25586 z m -208.26367,0.16407 a 500,500 0 0 0 1.46484,0.31054 500,500 0 0 1 -1.46484,-0.31054 z m 1.74609,0.36914 a 500,500 0 0 0 1.54493,0.31836 500,500 0 0 1 -1.54493,-0.31836 z m 1.83399,0.37695 a 500,500 0 0 0 1.63672,0.33203 500,500 0 0 1 -1.63672,-0.33203 z m 1.63672,0.33203 a 500,500 0 0 0 1.84375,0.36719 500,500 0 0 1 -1.84375,-0.36719 z m 186.26367,2.04688 a 500,500 0 0 1 -1.52539,0.26953 500,500 0 0 0 1.52539,-0.26953 z m -3.69727,0.64453 a 500,500 0 0 1 -1.68359,0.2832 500,500 0 0 0 1.68359,-0.2832 z m -1.68359,0.2832 a 500,500 0 0 1 -1.85547,0.30664 500,500 0 0 0 1.85547,-0.30664 z m -1.85547,0.30664 a 500,500 0 0 1 -1.85547,0.29883 500,500 0 0 0 1.85547,-0.29883 z m -1.85547,0.29883 a 500,500 0 0 1 -1.85742,0.29297 500,500 0 0 0 1.85742,-0.29297 z m -1.85742,0.29297 a 500,500 0 0 1 -1.85938,0.28516 500,500 0 0 0 1.85938,-0.28516 z m -1.85938,0.28516 a 500,500 0 0 1 -1.38867,0.20898 500,500 0 0 0 1.38867,-0.20898 z m -148.84375,0.15234 a 500,500 0 0 0 1.32032,0.19531 500,500 0 0 1 -1.32032,-0.19531 z m 1.32032,0.19531 a 500,500 0 0 0 1.86132,0.26953 500,500 0 0 1 -1.86132,-0.26953 z m 138.01367,1 a 500,500 0 0 1 -1.48828,0.19336 500,500 0 0 0 1.48828,-0.19336 z m -126.83399,0.51172 a 500,500 0 0 0 1.79297,0.21875 500,500 0 0 1 -1.79297,-0.21875 z m 119.53321,0.39649 a 500,500 0 0 1 -1.01953,0.11914 500,500 0 0 0 1.01953,-0.11914 z m -115.14453,0.12695 a 500,500 0 0 0 1.21484,0.13867 500,500 0 0 1 -1.21484,-0.13867 z m 111.4414,0.29297 a 500,500 0 0 1 -1.86328,0.20117 500,500 0 0 0 1.86328,-0.20117 z m -1.86328,0.20117 a 500,500 0 0 1 -1.27734,0.13281 500,500 0 0 0 1.27734,-0.13281 z m -104.1543,0.0996 a 500,500 0 0 0 1.39844,0.14258 500,500 0 0 1 -1.39844,-0.14258 z m 100.41407,0.28125 a 500,500 0 0 1 -1.87305,0.17969 500,500 0 0 0 1.87305,-0.17969 z m -1.87305,0.17969 a 500,500 0 0 1 -1.5957,0.14843 500,500 0 0 0 1.5957,-0.14843 z m -7.6543,0.6621 a 500,500 0 0 1 -1.61523,0.125 500,500 0 0 0 1.61523,-0.125 z m -1.76172,0.13672 a 500,500 0 0 1 -1.03515,0.0762 500,500 0 0 0 1.03515,-0.0762 z m -73.75195,0.0957 a 500,500 0 0 0 1.01367,0.0723 500,500 0 0 1 -1.01367,-0.0723 z m 1.01367,0.0723 a 500,500 0 0 0 1.875,0.12891 500,500 0 0 1 -1.875,-0.12891 z m 4.41211,0.29102 a 500,500 0 0 0 1.2168,0.0742 500,500 0 0 1 -1.2168,-0.0742 z m 49.48242,0.60156 a 500,500 0 0 1 -1.75781,0.0625 500,500 0 0 0 1.75781,-0.0625 z m -1.75781,0.0625 a 500,500 0 0 1 -1.79687,0.0586 500,500 0 0 0 1.79687,-0.0586 z m -1.9082,0.0606 a 500,500 0 0 1 -1.85156,0.0527 500,500 0 0 0 1.85156,-0.0527 z m -1.85156,0.0527 a 500,500 0 0 1 -1.27735,0.0312 500,500 0 0 0 1.27735,-0.0312 z m -25.00782,0.0332 a 500,500 0 0 0 1.04493,0.0234 500,500 0 0 1 -1.04493,-0.0234 z m 1.04493,0.0234 a 500,500 0 0 0 1.88085,0.0371 500,500 0 0 1 -1.88085,-0.0371 z m 4.40429,0.0762 a 500,500 0 0 0 1.23633,0.0137 500,500 0 0 1 -1.23633,-0.0137 z m 1.23633,0.0137 a 500,500 0 0 0 1.88086,0.0156 500,500 0 0 1 -1.88086,-0.0156 z" />
</svg>
