<?xml version="1.0" encoding="UTF-8" standalone="no"?>
<svg
   xmlns:sketch="http://www.bohemiancoding.com/sketch/ns"
   xmlns:dc="http://purl.org/dc/elements/1.1/"
   xmlns:cc="http://creativecommons.org/ns#"
   xmlns:rdf="http://www.w3.org/1999/02/22-rdf-syntax-ns#"
   xmlns:svg="http://www.w3.org/2000/svg"
   xmlns="http://www.w3.org/2000/svg"
   xmlns:sodipodi="http://sodipodi.sourceforge.net/DTD/sodipodi-0.dtd"
   xmlns:inkscape="http://www.inkscape.org/namespaces/inkscape"
   width="1000"
   height="1000"
   viewBox="0 0 1000 1000"
   version="1.1"
   id="svg952"
   sodipodi:docname="GitLab_Logo.svg"
   inkscape:version="1.0.1 (3bc2e813f5, 2020-09-07)">
  <metadata
     id="metadata956">
    <rdf:RDF>
      <cc:Work
         rdf:about="">
        <dc:format>image/svg+xml</dc:format>
        <dc:type
           rdf:resource="http://purl.org/dc/dcmitype/StillImage" />
        <dc:title>Group</dc:title>
      </cc:Work>
    </rdf:RDF>
  </metadata>
  <sodipodi:namedview
     pagecolor="#ffffff"
     bordercolor="#666666"
     borderopacity="1"
     objecttolerance="10"
     gridtolerance="10"
     guidetolerance="10"
     inkscape:pageopacity="0"
     inkscape:pageshadow="2"
     inkscape:window-width="3840"
     inkscape:window-height="2088"
     id="namedview954"
     showgrid="false"
     inkscape:zoom="0.88472527"
     inkscape:cx="56.201727"
     inkscape:cy="474.99332"
     inkscape:window-x="0"
     inkscape:window-y="35"
     inkscape:window-maximized="1"
     inkscape:current-layer="Group-24"
     inkscape:document-rotation="0" />
  <defs
     id="defs936" />
  <g
       id="Group-24"
       transform="matrix(4.7652138,0,0,4.7652138,-0.64027139,37.773844)">
        <path
           id="path919"
           style="fill:#dadada;stroke-width:0.999999"
           d="M 500 0 A 499.99998 499.99998 0 0 0 0 500 A 499.99998 499.99998 0 0 0 500 1000 A 499.99998 499.99998 0 0 0 1000 500 A 499.99998 499.99998 0 0 0 500 0 z M 253.58984 137.58594 C 259.59946 137.58547 265.6094 141.03877 267.85352 147.94922 L 355.11719 416.51172 L 644.88281 416.51172 L 732.14648 147.94922 C 734.39061 141.03877 740.40054 137.58547 746.41016 137.58594 C 752.41977 137.58641 758.4297 141.04065 760.67383 147.94922 L 847.93359 416.51172 L 891.96094 552.01758 C 895.97668 564.37616 891.57804 577.91491 881.06445 585.55273 L 500 862.41406 L 118.93555 585.55273 C 108.42177 577.91491 104.02328 564.37616 108.03906 552.01758 L 152.06641 416.51172 L 239.32617 147.94922 C 241.57029 141.04065 247.58023 137.58641 253.58984 137.58594 z M 152.06641 416.51172 L 500 862.41406 L 355.11719 416.51172 L 152.06641 416.51172 z M 500 862.41406 L 847.93359 416.51172 L 644.88281 416.51172 L 500 862.41406 z "
           transform="matrix(0.20985417,0,0,0.20985417,0.13436362,-7.9269988)" />
  </g>
</svg>
