<?xml version="1.0" encoding="UTF-8" standalone="no"?>
<svg
   xmlns:dc="http://purl.org/dc/elements/1.1/"
   xmlns:cc="http://creativecommons.org/ns#"
   xmlns:rdf="http://www.w3.org/1999/02/22-rdf-syntax-ns#"
   xmlns:svg="http://www.w3.org/2000/svg"
   xmlns="http://www.w3.org/2000/svg"
   xmlns:sodipodi="http://sodipodi.sourceforge.net/DTD/sodipodi-0.dtd"
   xmlns:inkscape="http://www.inkscape.org/namespaces/inkscape"
   id="svg2"
   sodipodi:version="0.32"
   inkscape:version="1.0.1 (3bc2e813f5, 2020-09-07)"
   width="1000"
   height="1000"
   version="1.0"
   sodipodi:docname="GnuPG-Logo.svg"
   sodipodi:modified="true">
  <metadata
     id="metadata7">
    <rdf:RDF>
      <cc:Work
         rdf:about="">
        <dc:format>image/svg+xml</dc:format>
        <dc:type
           rdf:resource="http://purl.org/dc/dcmitype/StillImage" />
        <dc:title></dc:title>
      </cc:Work>
    </rdf:RDF>
  </metadata>
  <defs
     id="defs5" />
  <sodipodi:namedview
     inkscape:window-height="2088"
     inkscape:window-width="3840"
     inkscape:pageshadow="2"
     inkscape:pageopacity="0.0"
     guidetolerance="10.0"
     gridtolerance="10.0"
     objecttolerance="10.0"
     borderopacity="1.0"
     bordercolor="#666666"
     pagecolor="#ffffff"
     id="base"
     width="70px"
     height="92px"
     inkscape:zoom="0.70710678"
     inkscape:cx="284.4139"
     inkscape:cy="647.70649"
     inkscape:window-x="0"
     inkscape:window-y="35"
     inkscape:current-layer="svg2"
     inkscape:document-rotation="0"
     showgrid="false"
     inkscape:window-maximized="1" />
  <path
     id="path911"
     style="fill:#dadada;fill-opacity:1"
     d="M 500 0 A 500 500 0 0 0 0 500 A 500 500 0 0 0 500 1000 A 500 500 0 0 0 1000 500 A 500 500 0 0 0 500 0 z M 504.81055 120.11914 C 685.38901 118.8293 728.85682 301.32953 732.41992 317.83594 L 733.16992 317.83594 L 733.16992 463.14844 C 732.83333 463.26055 732.52693 463.3759 732.28711 463.5 C 663.5148 499.08846 649.47269 510.26483 604.36133 519.28711 C 476.91615 544.77615 399.96801 537.56206 336.9668 560.64648 C 293.04145 576.74126 239.97724 633.07454 230.68164 643.19141 L 230.68164 465.61523 L 267.15234 465.61523 L 267.15234 316.0957 L 267.25195 316.0957 C 268.08664 279.60268 333.03605 121.35493 504.81055 120.11914 z M 494.67578 150.71875 C 467.78754 150.77978 437.85229 155.70083 408.30859 170.21289 C 320.00717 213.58716 309.70312 314.07031 309.70312 314.07031 C 397.59091 134.87184 520.78275 159.8034 592.01562 170.84375 C 592.01562 170.84375 549.73264 150.5938 494.67578 150.71875 z M 499.51953 227.36523 C 443.35712 227.36523 396.20498 265.68829 382.64453 317.61914 L 382.64453 465.61523 L 616.32812 465.61523 L 616.32812 317.83594 L 616.38672 317.83594 C 602.90613 265.78723 555.76548 227.36523 499.51953 227.36523 z M 769.31836 510.66016 L 769.31836 831.88867 L 314.7168 831.88867 C 320.67866 827.62699 341.97402 811.27518 364.85938 809.28516 C 364.85938 809.28516 629.36948 825.39573 701.02734 706.84766 C 701.02734 706.84766 573.10045 770.81015 415.83789 728.00781 C 415.83789 728.00781 687.07976 736.18358 763.54688 573.63086 C 730.67537 578.48306 649.89407 656.93495 498.55664 636.63281 C 513.37565 637.34985 690.20669 591.96918 769.31836 510.66016 z " />
</svg>
