<?xml version="1.0" encoding="UTF-8" standalone="no"?>
<svg
   xmlns:dc="http://purl.org/dc/elements/1.1/"
   xmlns:cc="http://creativecommons.org/ns#"
   xmlns:rdf="http://www.w3.org/1999/02/22-rdf-syntax-ns#"
   xmlns:svg="http://www.w3.org/2000/svg"
   xmlns="http://www.w3.org/2000/svg"
   xmlns:sodipodi="http://sodipodi.sourceforge.net/DTD/sodipodi-0.dtd"
   xmlns:inkscape="http://www.inkscape.org/namespaces/inkscape"
   version="1.1"
   preserveAspectRatio="xMidYMid meet"
   viewBox="0 0 1000 1000"
   width="1000"
   height="1000"
   id="svg1059"
   sodipodi:docname="IMDB_Logo_2016.svg"
   inkscape:version="1.0.1 (3bc2e813f5, 2020-09-07)">
  <metadata
     id="metadata1063">
    <rdf:RDF>
      <cc:Work
         rdf:about="">
        <dc:format>image/svg+xml</dc:format>
        <dc:type
           rdf:resource="http://purl.org/dc/dcmitype/StillImage" />
        <dc:title></dc:title>
      </cc:Work>
    </rdf:RDF>
  </metadata>
  <sodipodi:namedview
     pagecolor="#ffffff"
     bordercolor="#666666"
     borderopacity="1"
     objecttolerance="10"
     gridtolerance="10"
     guidetolerance="10"
     inkscape:pageopacity="0"
     inkscape:pageshadow="2"
     inkscape:window-width="3840"
     inkscape:window-height="2088"
     id="namedview1061"
     showgrid="false"
     inkscape:zoom="1.0041931"
     inkscape:cx="41.86158"
     inkscape:cy="477.18411"
     inkscape:window-x="0"
     inkscape:window-y="35"
     inkscape:window-maximized="1"
     inkscape:current-layer="svg1059" />
  <defs
     id="defs1013">
    <path
       d="M 575,24.91 C 573.44,12.15 563.97,1.98 551.91,0 499.05,0 76.18,0 23.32,0 10.11,2.17 0,14.16 0,28.61 c 0,23.23 0,209.03 0,232.25 0,16 12.37,28.97 27.64,28.97 51.99,0 467.96,0 519.95,0 14.06,0 25.67,-11.01 27.41,-25.26 0,-47.93 0,-215.7 0,-239.66 z"
       id="d1pwhf9wy2" />
    <path
       d="m 69.35,58.24 h 45.63 V 233.89 H 69.35 Z"
       id="g5jjnq26yS" />
    <path
       d="m 201.2,139.15 c -3.92,-26.77 -6.1,-41.65 -6.53,-44.62 -1.91,-14.33 -3.73,-26.8 -5.47,-37.44 -3.95,0 -23.66,0 -59.16,0 v 175.65 h 39.97 l 0.14,-115.98 16.82,115.98 h 28.47 l 15.95,-118.56 0.15,118.56 h 39.84 V 57.09 h -59.61 z"
       id="i3Prh1JpXt" />
    <path
       d="m 346.71,93.63 c 0.5,2.24 0.76,7.32 0.76,15.26 0,6.81 0,61.29 0,68.1 0,11.69 -0.76,18.85 -2.27,21.49 -1.52,2.64 -5.56,3.95 -12.11,3.95 0,-11.53 0,-103.77 0,-115.3 4.97,0 8.36,0.53 10.16,1.57 1.8,1.05 2.96,2.69 3.46,4.93 z m 20.61,137.32 c 5.43,-1.19 9.99,-3.29 13.69,-6.28 3.69,-3 6.28,-7.15 7.76,-12.46 1.49,-5.3 2.37,-15.83 2.37,-31.58 0,-6.16 0,-55.51 0,-61.68 0,-16.62 -0.65,-27.76 -1.66,-33.42 -1.02,-5.67 -3.55,-10.82 -7.6,-15.44 -4.06,-4.62 -9.98,-7.94 -17.76,-9.96 -7.79,-2.02 -20.49,-3.04 -42.58,-3.04 -2.27,0 -13.61,0 -34.04,0 v 175.65 h 55.28 c 12.74,-0.4 20.92,-0.99 24.54,-1.79 z"
       id="a4ov9rRGQm" />
    <path
       d="m 464.76,204.7 c -0.84,2.23 -4.52,3.36 -7.3,3.36 -2.72,0 -4.53,-1.08 -5.45,-3.25 -0.92,-2.16 -1.37,-7.09 -1.37,-14.81 0,-4.64 0,-41.78 0,-46.42 0,-8 0.4,-12.99 1.21,-14.98 0.8,-1.97 2.56,-2.97 5.28,-2.97 2.78,0 6.51,1.13 7.47,3.4 0.95,2.27 1.43,7.12 1.43,14.55 0,3 0,18 0,45.01 -0.29,9.25 -0.71,14.62 -1.27,16.11 z m -58.08,26.51 h 41.08 c 1.71,-6.71 2.65,-10.44 2.84,-11.19 3.72,4.5 7.81,7.88 12.3,10.12 4.47,2.25 11.16,3.37 16.34,3.37 7.21,0 13.43,-1.89 18.68,-5.68 5.24,-3.78 8.58,-8.26 10,-13.41 1.42,-5.16 2.13,-13 2.13,-23.54 0,-4.93 0,-44.35 0,-49.28 0,-10.6 -0.24,-17.52 -0.71,-20.77 -0.47,-3.25 -1.87,-6.56 -4.2,-9.95 -2.33,-3.39 -5.72,-6.02 -10.16,-7.9 -4.44,-1.88 -9.68,-2.82 -15.72,-2.82 -5.25,0 -11.97,1.05 -16.45,3.12 -4.47,2.07 -8.53,5.21 -12.17,9.42 0,-3.81 0,-22.85 0,-57.14 h -43.96 z"
       id="fk968BpsX" />
  </defs>
  <path
     id="path1687"
     style="fill:#dadada"
     d="M 500 0 A 500 500 0 0 0 0 500 A 500 500 0 0 0 500 1000 A 500 500 0 0 0 1000 500 A 500 500 0 0 0 500 0 z M 698.54883 350.14648 L 772.33594 350.14648 L 772.33594 446.05664 C 778.44565 438.9902 785.26082 433.71861 792.76367 430.24414 C 800.28331 426.76966 811.56293 425.00781 820.375 425.00781 C 830.51308 425.00781 839.30728 426.58663 846.75977 429.74219 C 854.21227 432.89775 859.90357 437.31187 863.81445 443.00195 C 867.72533 448.69203 870.07439 454.24804 870.86328 459.70312 C 871.65217 465.15822 872.05469 476.77246 872.05469 494.56445 L 872.05469 577.28125 C 872.05469 594.97254 870.86393 608.13197 868.48047 616.79297 C 866.09702 625.4372 860.49059 632.95609 851.69531 639.30078 C 842.88323 645.66226 832.44372 648.83398 820.3418 648.83398 C 811.64723 648.83398 800.41691 646.95433 792.91406 643.17773 C 785.37764 639.41791 778.51352 633.74461 772.26953 626.19141 C 771.95062 627.45028 770.37217 633.71194 767.50195 644.97461 L 698.54883 644.97461 L 698.54883 350.14648 z M 234.21289 352.71484 L 333.51172 352.71484 C 336.4323 370.57397 339.48745 391.50583 342.69336 415.55859 C 343.41511 420.54371 347.07462 445.51997 353.6543 490.45312 L 371.39453 352.71484 L 471.44922 352.71484 L 471.44922 647.54297 L 404.57812 647.54297 L 404.32812 448.54102 L 377.55469 647.54297 L 329.76953 647.54297 L 301.53711 452.87109 L 301.30078 647.54297 L 234.21289 647.54297 L 234.21289 352.71484 z M 498.50781 352.71484 L 555.64258 352.71484 C 592.72042 352.71484 614.03784 354.42781 627.11328 357.81836 C 640.17193 361.20891 650.10916 366.78053 656.92383 374.53516 C 663.72171 382.28978 667.96763 390.93413 669.67969 400.45117 C 671.37497 409.95142 672.4668 428.65037 672.4668 456.54688 L 672.4668 560.07617 C 672.4668 586.51239 670.98923 604.18604 668.48828 613.08203 C 666.00412 621.99481 661.65652 628.96062 655.46289 633.99609 C 649.25248 639.01477 641.59856 642.53971 632.48438 644.53711 C 626.40824 645.8799 612.67888 646.87157 591.29492 647.54297 L 498.50781 647.54297 L 498.50781 352.71484 z M 132.3457 354.64648 L 208.93359 354.64648 L 208.93359 649.47266 L 132.3457 649.47266 L 132.3457 354.64648 z M 575.0293 403.13672 L 575.0293 596.66797 C 586.02341 596.66797 592.80416 594.46832 595.35547 590.03711 C 597.88999 585.60589 599.16602 573.58834 599.16602 553.9668 L 599.16602 439.66211 C 599.16602 426.3349 598.72987 417.80668 597.89062 414.04688 C 597.05138 410.28706 595.10526 407.53586 592.08398 405.77344 C 589.0627 404.02781 583.3714 403.13672 575.0293 403.13672 z M 783.23047 467.75977 C 778.66498 467.75977 775.70998 469.43752 774.36719 472.74414 C 773.00761 476.08434 772.33594 484.46075 772.33594 497.88867 L 772.33594 575.80273 C 772.33594 588.76067 773.09056 597.03657 774.63477 600.66211 C 776.17898 604.30443 779.21771 606.11719 783.7832 606.11719 C 788.44941 606.11719 794.62718 604.2196 796.03711 600.47656 C 796.97706 597.97561 797.68121 588.96353 798.16797 573.4375 L 798.16797 497.88867 C 798.16797 485.41749 797.36215 477.27697 795.76758 473.4668 C 794.15623 469.65663 787.89667 467.75977 783.23047 467.75977 z " />
</svg>
