<?xml version="1.0" encoding="UTF-8" standalone="no"?>
<svg
   xmlns:dc="http://purl.org/dc/elements/1.1/"
   xmlns:cc="http://creativecommons.org/ns#"
   xmlns:rdf="http://www.w3.org/1999/02/22-rdf-syntax-ns#"
   xmlns:svg="http://www.w3.org/2000/svg"
   xmlns="http://www.w3.org/2000/svg"
   xmlns:sodipodi="http://sodipodi.sourceforge.net/DTD/sodipodi-0.dtd"
   xmlns:inkscape="http://www.inkscape.org/namespaces/inkscape"
   viewBox="0 0 1000 1000"
   version="1.1"
   id="svg5036"
   sodipodi:docname="Instagram.svg"
   width="1000"
   height="1000"
   inkscape:version="1.0.1 (3bc2e813f5, 2020-09-07)">
  <metadata
     id="metadata5042">
    <rdf:RDF>
      <cc:Work
         rdf:about="">
        <dc:format>image/svg+xml</dc:format>
        <dc:type
           rdf:resource="http://purl.org/dc/dcmitype/StillImage" />
        <dc:title></dc:title>
      </cc:Work>
    </rdf:RDF>
  </metadata>
  <defs
     id="defs5040" />
  <sodipodi:namedview
     pagecolor="#ffffff"
     bordercolor="#666666"
     borderopacity="1"
     objecttolerance="10"
     gridtolerance="10"
     guidetolerance="10"
     inkscape:pageopacity="0"
     inkscape:pageshadow="2"
     inkscape:window-width="3840"
     inkscape:window-height="2088"
     id="namedview5038"
     showgrid="false"
     inkscape:zoom="0.984375"
     inkscape:cx="498.90047"
     inkscape:cy="661.82645"
     inkscape:window-x="0"
     inkscape:window-y="35"
     inkscape:window-maximized="1"
     inkscape:current-layer="svg5036"
     inkscape:document-rotation="0" />
  <path
     id="path2315"
     style="fill:#dadada;fill-opacity:1"
     d="M 500 0 A 500 500 0 0 0 0 500 A 500 500 0 0 0 500 1000 A 500 500 0 0 0 1000 500 A 500 500 0 0 0 500 0 z M 499.99805 193.81836 L 500 193.81836 C 583.15272 193.81837 593.58387 194.16988 626.23633 195.66602 C 658.82708 197.14758 681.08388 202.32333 700.56055 209.88672 A 150.08517 150.08517 0 0 1 754.79492 245.20898 A 150.08396 150.08396 0 0 1 790.10938 299.43945 C 797.67884 318.9149 802.85415 341.17097 804.3418 373.76172 C 805.83187 406.41446 806.18555 416.84649 806.18555 500 C 806.18555 583.15351 805.83187 593.58068 804.3418 626.23828 C 802.85415 658.82781 797.67884 681.08389 790.10938 700.56055 A 156.56322 156.56322 0 0 1 700.56445 790.10742 C 681.089 797.67688 658.83098 802.8522 626.24023 804.33984 C 593.58749 805.82991 583.15742 806.18164 500.00391 806.18164 C 416.8504 806.18164 406.42325 805.82991 373.76562 804.33984 C 341.17609 802.8522 318.92002 797.67688 299.44336 790.10742 A 150.08396 150.08396 0 0 1 245.21094 754.79102 A 150.0876 150.0876 0 0 1 209.89648 700.56055 C 202.32702 681.0851 197.1517 658.82903 195.66406 626.23828 C 194.16791 593.58554 193.81445 583.15472 193.81445 500 C 193.81445 416.84528 194.16791 406.41446 195.66406 373.76172 C 197.14562 341.17097 202.32138 318.91612 209.88477 299.43945 A 150.08639 150.08639 0 0 1 245.20898 245.20898 A 150.08639 150.08639 0 0 1 299.43945 209.89258 C 318.9149 202.32311 341.17097 197.1478 373.76172 195.66016 C 406.41417 194.1701 416.84532 193.81837 499.99805 193.81836 z M 499.99805 248.98633 C 418.24303 248.98633 408.56006 249.29844 376.27344 250.77148 C 346.42097 252.13272 330.20896 257.1194 319.41992 261.3125 A 94.865031 94.865031 0 0 0 284.21484 284.2168 A 94.863815 94.863815 0 0 0 261.30859 319.42383 C 257.11549 330.21408 252.12807 346.42487 250.76562 376.27734 C 249.29256 408.56667 248.98047 418.24688 248.98047 500.00391 C 248.98047 581.76093 249.29258 591.44479 250.76562 623.73047 C 252.12686 653.58294 257.11549 669.79494 261.30859 680.58398 A 94.865031 94.865031 0 0 0 284.21289 715.78906 A 94.8626 94.8626 0 0 0 319.41797 738.69336 C 330.20823 742.88525 346.41901 747.87387 376.27148 749.23633 C 408.55595 750.70938 418.23495 751.02148 499.99805 751.02148 C 581.76115 751.02148 591.44378 750.70938 623.72461 749.23633 C 653.57708 747.87509 669.7891 742.88647 680.57812 738.69336 A 101.39655 101.39655 0 0 0 738.6875 680.58398 C 742.87939 669.79373 747.86802 653.58294 749.23047 623.73047 C 750.70353 591.44114 751.01564 581.76093 751.01562 500.00391 C 751.01562 418.24688 750.70353 408.56424 749.23047 376.27734 C 747.86923 346.42487 742.8806 330.21287 738.6875 319.42383 A 94.863815 94.863815 0 0 0 715.7832 284.21875 A 94.863815 94.863815 0 0 0 680.57812 261.31445 C 669.78787 257.12134 653.57708 252.13394 623.72461 250.77148 C 591.43556 249.29845 581.75258 248.98633 500 248.98633 L 499.99805 248.98633 z M 663.32227 299.81836 A 36.741315 36.741315 0 0 1 663.43945 299.81836 A 36.741315 36.741315 0 0 1 700.17969 336.55859 A 36.741315 36.741315 0 0 1 663.43945 373.30078 A 36.741315 36.741315 0 0 1 626.69727 336.55859 A 36.741315 36.741315 0 0 1 663.32227 299.81836 z M 499.99805 342.77148 A 157.22925 157.22925 0 0 1 657.22656 500 A 157.22925 157.22925 0 1 1 499.99805 342.77148 z M 499.63672 397.94141 A 102.06015 102.06015 0 0 0 499.99805 602.06055 A 102.06137 102.06137 0 0 0 602.05859 500 A 102.06015 102.06015 0 0 0 499.63672 397.94141 z " />
</svg>
