<?xml version="1.0" encoding="UTF-8" standalone="no"?>
<svg
   xmlns:dc="http://purl.org/dc/elements/1.1/"
   xmlns:cc="http://creativecommons.org/ns#"
   xmlns:rdf="http://www.w3.org/1999/02/22-rdf-syntax-ns#"
   xmlns:svg="http://www.w3.org/2000/svg"
   xmlns="http://www.w3.org/2000/svg"
   xmlns:sodipodi="http://sodipodi.sourceforge.net/DTD/sodipodi-0.dtd"
   xmlns:inkscape="http://www.inkscape.org/namespaces/inkscape"
   width="1000"
   height="1000"
   id="svg3070"
   version="1.1"
   inkscape:version="1.0.1 (3bc2e813f5, 2020-09-07)"
   sodipodi:docname="LinkedIn_Logo.svg">
  <defs
     id="defs3072" />
  <sodipodi:namedview
     id="base"
     pagecolor="#ffffff"
     bordercolor="#666666"
     borderopacity="1.0"
     inkscape:pageopacity="0.0"
     inkscape:pageshadow="2"
     inkscape:zoom="0.7"
     inkscape:cx="218.39741"
     inkscape:cy="678.84467"
     inkscape:document-units="px"
     inkscape:current-layer="layer1"
     showgrid="false"
     fit-margin-top="0"
     fit-margin-left="0"
     fit-margin-right="0"
     fit-margin-bottom="0"
     inkscape:window-width="3840"
     inkscape:window-height="2088"
     inkscape:window-x="0"
     inkscape:window-y="35"
     inkscape:window-maximized="1"
     inkscape:document-rotation="0" />
  <metadata
     id="metadata3075">
    <rdf:RDF>
      <cc:Work
         rdf:about="">
        <dc:format>image/svg+xml</dc:format>
        <dc:type
           rdf:resource="http://purl.org/dc/dcmitype/StillImage" />
        <dc:title></dc:title>
      </cc:Work>
    </rdf:RDF>
  </metadata>
  <g
     inkscape:label="Layer 1"
     inkscape:groupmode="layer"
     id="layer1"
     transform="translate(-200.55198,-393.96227)">
    <path
       id="path16154"
       style="fill:#dadada;fill-opacity:1"
       d="M 500,0 C 367.39176,0 240.2148,52.67842 146.44661,146.44661 52.67842,240.2148 0,367.39176 0,500 0,632.60824 52.67842,759.7852 146.44661,853.55339 240.2148,947.32158 367.39176,1000 500,1000 632.60824,1000 759.7852,947.32158 853.55339,853.55339 947.32158,759.7852 1000,632.60824 1000,500 1000,367.39176 947.32158,240.2148 853.55339,146.44661 759.7852,52.67842 632.60824,0 500,0 Z M 294.93555,224.08398 c 42.03158,0 67.90047,27.59671 68.69922,63.86719 0,35.47204 -26.66744,63.85742 -69.51172,63.85742 h -0.002 -0.79882 c -41.23088,0 -67.89258,-28.38538 -67.89258,-63.85742 0,-36.27048 27.4787,-63.86719 69.50586,-63.86719 z m 362.1875,169.51758 c 80.83314,0 142.51858,52.83554 141.44726,166.36719 V 771.91602 H 675.71875 v -197.75 c 0,-49.6914 -17.78267,-83.5879 -62.24023,-83.5879 -33.94067,0 -54.15748,22.86071 -63.03907,44.9336 -3.24396,7.89722 -4.04297,18.93302 -4.04297,29.98047 V 771.91602 H 423.54102 c 0,0 1.61232,-334.95617 0,-369.64063 h 122.85937 v 52.35742 c 16.32182,-25.18957 45.50852,-61.03125 110.72266,-61.03125 z m -424.42969,8.67383 H 355.55469 V 771.91602 H 232.69336 Z"
       transform="translate(200.55198,393.96227)"
       sodipodi:nodetypes="sssssssssscscsssssccsscscccccsccccc" />
  </g>
</svg>
