<?xml version="1.0" encoding="UTF-8" standalone="no"?>
<svg
   xmlns:dc="http://purl.org/dc/elements/1.1/"
   xmlns:cc="http://creativecommons.org/ns#"
   xmlns:rdf="http://www.w3.org/1999/02/22-rdf-syntax-ns#"
   xmlns:svg="http://www.w3.org/2000/svg"
   xmlns="http://www.w3.org/2000/svg"
   xmlns:sodipodi="http://sodipodi.sourceforge.net/DTD/sodipodi-0.dtd"
   xmlns:inkscape="http://www.inkscape.org/namespaces/inkscape"
   version="1.1"
   id="Layer_1"
   x="0px"
   y="0px"
   viewBox="0 0 1000 1000"
   xml:space="preserve"
   sodipodi:docname="Medium.svg"
   width="1000"
   height="1000"
   inkscape:version="1.0.1 (3bc2e813f5, 2020-09-07)"><metadata
   id="metadata7358"><rdf:RDF><cc:Work
       rdf:about=""><dc:format>image/svg+xml</dc:format><dc:type
         rdf:resource="http://purl.org/dc/dcmitype/StillImage" /><dc:title></dc:title></cc:Work></rdf:RDF></metadata><defs
   id="defs7356" /><sodipodi:namedview
   pagecolor="#ffffff"
   bordercolor="#666666"
   borderopacity="1"
   objecttolerance="10"
   gridtolerance="10"
   guidetolerance="10"
   inkscape:pageopacity="0"
   inkscape:pageshadow="2"
   inkscape:window-width="3840"
   inkscape:window-height="2088"
   id="namedview7354"
   showgrid="false"
   inkscape:zoom="0.9055774"
   inkscape:cx="314.13152"
   inkscape:cy="537.0696"
   inkscape:window-x="0"
   inkscape:window-y="35"
   inkscape:window-maximized="1"
   inkscape:current-layer="Layer_1"
   inkscape:document-rotation="0" />
<path
   id="path4228"
   style="fill:#dadada"
   d="M 500 0 A 500 500 0 0 0 0 500 A 500 500 0 0 0 500 1000 A 500 500 0 0 0 1000 500 A 500 500 0 0 0 500 0 z M 619.84766 206.47266 C 622.07186 206.4331 624.33519 206.89896 626.46289 207.92188 L 831.29102 306.41992 C 839.12103 310.1855 841.98772 319.8876 837.46094 327.30273 L 616.14844 689.93359 L 466.53906 445.69141 L 607.54883 213.5332 C 610.24523 209.094 614.95442 206.55966 619.84766 206.47266 z M 164.82812 208.81055 C 165.20878 208.79211 165.59317 208.79299 165.97852 208.81445 C 167.40132 208.89371 168.84582 209.25039 170.25 209.92578 L 385.53711 313.45117 L 385.53711 781.86719 C 385.53711 790.44785 376.57531 796.08139 368.84375 792.36328 L 160.68164 692.26367 C 156.64709 690.32286 154.08203 686.24338 154.08203 681.76758 L 154.08203 220.08984 C 154.08203 213.76135 159.11828 209.08713 164.82812 208.81055 z " /><path
   id="path7315"
   style="fill:#333b42;fill-opacity:1;stroke-width:1.75797;font-variation-settings:normal;opacity:1;vector-effect:none;stroke-linecap:butt;stroke-linejoin:miter;stroke-miterlimit:4;stroke-dasharray:none;stroke-dashoffset:0;stroke-opacity:1;stop-color:#000000;stop-opacity:1"
   d="M 635.5918 212.31055 L 831.29102 306.41992 C 839.12103 310.1855 841.98772 319.8876 837.46094 327.30273 L 616.14844 689.93359 L 829.22266 792.36523 C 836.95422 796.08334 845.91597 790.44981 845.91797 781.86914 L 845.91797 322.68359 C 845.91797 317.0405 842.68347 311.89456 837.59766 309.44922 L 635.5918 212.31055 z " />
<g
   id="g7323">
</g>
<g
   id="g7325">
</g>
<g
   id="g7327">
</g>
<g
   id="g7329">
</g>
<g
   id="g7331">
</g>
<g
   id="g7333">
</g>
<g
   id="g7335">
</g>
<g
   id="g7337">
</g>
<g
   id="g7339">
</g>
<g
   id="g7341">
</g>
<g
   id="g7343">
</g>
<g
   id="g7345">
</g>
<g
   id="g7347">
</g>
<g
   id="g7349">
</g>
<g
   id="g7351">
</g>
<path
   id="path7319-7"
   style="font-variation-settings:normal;opacity:1;vector-effect:none;fill:#333b42;fill-opacity:1;stroke-width:1.75797;stroke-linecap:butt;stroke-linejoin:miter;stroke-miterlimit:4;stroke-dasharray:none;stroke-dashoffset:0;stroke-opacity:1;stop-color:#000000;stop-opacity:1"
   d="m 385.53711,313.45117 v 265.60352 l 230.61133,110.8789 z" /></svg>
