<?xml version="1.0" encoding="UTF-8" standalone="no"?>
<svg
   xmlns:dc="http://purl.org/dc/elements/1.1/"
   xmlns:cc="http://creativecommons.org/ns#"
   xmlns:rdf="http://www.w3.org/1999/02/22-rdf-syntax-ns#"
   xmlns:svg="http://www.w3.org/2000/svg"
   xmlns="http://www.w3.org/2000/svg"
   xmlns:sodipodi="http://sodipodi.sourceforge.net/DTD/sodipodi-0.dtd"
   xmlns:inkscape="http://www.inkscape.org/namespaces/inkscape"
   width="1000"
   height="1000"
   version="1.1"
   xml:space="preserve"
   style="clip-rule:evenodd;fill-rule:evenodd;stroke-linejoin:round;stroke-miterlimit:1.41421"
   id="svg7957"
   sodipodi:docname="Reddit.svg"
   inkscape:version="1.0.1 (3bc2e813f5, 2020-09-07)"><metadata
   id="metadata7963"><rdf:RDF><cc:Work
       rdf:about=""><dc:format>image/svg+xml</dc:format><dc:type
         rdf:resource="http://purl.org/dc/dcmitype/StillImage" /><dc:title></dc:title></cc:Work></rdf:RDF></metadata><defs
   id="defs7961">
        </defs><sodipodi:namedview
   pagecolor="#ffffff"
   bordercolor="#666666"
   borderopacity="1"
   objecttolerance="10"
   gridtolerance="10"
   guidetolerance="10"
   inkscape:pageopacity="0"
   inkscape:pageshadow="2"
   inkscape:window-width="3840"
   inkscape:window-height="2088"
   id="namedview7959"
   showgrid="false"
   inkscape:zoom="0.93386861"
   inkscape:cx="412.02526"
   inkscape:cy="633.75343"
   inkscape:window-x="0"
   inkscape:window-y="35"
   inkscape:window-maximized="1"
   inkscape:current-layer="svg7957"
   inkscape:document-rotation="0" />
    <path
   id="circle7950"
   style="fill:#dadada;fill-opacity:1;stroke-width:11.1217"
   d="M 498.43601,3.1513762e-4 C 366.09892,0.41417641 239.32334,53.275254 145.89312,146.99864 52.462906,240.72202 -7.4255394e-4,367.66258 -7.7443088e-6,500.00032 -8.996152e-5,632.60859 52.678305,759.78559 146.44652,853.5538 240.21473,947.322 367.39173,1000.0004 500,1000.0003 632.60827,1000.0004 759.78528,947.322 853.55349,853.5538 947.3217,759.78559 1000.0001,632.60859 1000,500.00032 1000.0001,367.39205 947.3217,240.21504 853.55349,146.44683 759.78528,52.678616 632.60827,2.2496391e-4 500,3.1513762e-4 c -0.52133,-8.1535594e-4 -1.04266,-8.1535594e-4 -1.56399,0 z M 731.61733,165.58021 c 31.77126,0 57.57094,25.82377 57.57094,57.59502 0,31.7836 -25.79968,57.59506 -57.57094,57.59506 -31.11732,0 -56.26251,-24.49318 -57.59504,-54.94423 l -120.46763,-25.80933 -37.06325,173.4117 c 84.72747,3.30667 160.85472,29.1318 216.45133,68.84896 14.55925,-13.90532 34.40664,-22.50785 56.24553,-22.50785 44.35638,0 80.75355,35.74324 80.75355,80.75355 0,33.09145 -19.84411,61.56549 -47.64242,74.15061 1.3202,7.93355 1.97606,16.53801 1.97606,24.48392 0,125.09855 -144.94383,225.70508 -323.66485,225.70508 -178.72104,0 -323.68897,-101.27281 -323.68897,-225.70508 0,-8.61217 0.64356,-16.55037 1.97607,-24.48392 -27.81065,-12.58512 -47.66652,-40.38439 -47.66652,-73.47585 0,-44.35638 35.74322,-80.75356 80.75354,-80.75356 21.83888,0 41.71037,8.57842 56.26963,22.48376 56.26289,-40.38344 133.70514,-66.17214 219.75281,-68.82488 l 41.06357,-193.29281 c 0.65393,-3.97295 2.64561,-7.26729 5.9523,-9.25376 2.65274,-1.98648 6.60623,-2.66645 10.57917,-2.00018 l 134.37237,28.46015 c 9.26611,-19.19847 29.1376,-32.43636 51.64275,-32.43636 z M 372.84118,500.52309 c -31.78359,0 -57.59505,25.82379 -57.59505,57.59505 0,31.77125 25.81146,58.24896 57.59505,57.59504 31.77126,0 57.59504,-25.82379 57.59504,-57.59504 0,-31.77126 -25.82378,-57.59505 -57.59504,-57.59505 z m 254.18933,0.67478 c -31.77126,0 -57.59505,25.79968 -57.59505,57.57094 0,31.77126 25.82379,57.59505 57.59505,57.59505 31.7836,0 57.59505,-26.49006 57.59505,-57.59505 0,-31.77126 -25.81145,-57.57094 -57.59505,-57.57094 z M 374.16659,685.38151 c -3.80638,0 -7.62356,1.48466 -10.60327,4.45819 -5.94708,5.95943 -5.94708,15.22303 0,21.18245 39.06322,39.05089 114.54213,42.3649 137.04729,42.3649 21.83888,0 97.28192,-2.64774 136.99908,-42.3649 5.29315,-5.95942 5.29315,-15.22302 0,-21.18245 -5.95943,-5.94708 -15.22302,-5.94708 -21.18245,0 -24.49163,25.1579 -78.08597,33.73769 -115.81663,33.73769 -37.73068,0 -90.70695,-8.57979 -115.86486,-33.73769 -2.9797,-2.97353 -6.77278,-4.45819 -10.57916,-4.45819 z"
   sodipodi:nodetypes="cscsssssccsssccccsscssscssccccccssscssssssssccscccscs" />
</svg>
