<?xml version="1.0" encoding="UTF-8" standalone="no"?>
<svg
   xmlns:dc="http://purl.org/dc/elements/1.1/"
   xmlns:cc="http://creativecommons.org/ns#"
   xmlns:rdf="http://www.w3.org/1999/02/22-rdf-syntax-ns#"
   xmlns:svg="http://www.w3.org/2000/svg"
   xmlns="http://www.w3.org/2000/svg"
   xmlns:sodipodi="http://sodipodi.sourceforge.net/DTD/sodipodi-0.dtd"
   xmlns:inkscape="http://www.inkscape.org/namespaces/inkscape"
   width="1000"
   height="1000"
   viewBox="0 0 749.99998 749.99998"
   version="1.1"
   id="svg2"
   inkscape:version="1.0.1 (3bc2e813f5, 2020-09-07)"
   sodipodi:docname="Microsoft_Skype_for_Business_logo.svg">
  <path
     id="path887"
     style="fill:#dadada;fill-opacity:1;stroke-width:1.75797;stop-color:#000000"
     d="M 500 0 A 500.00001 500.00001 0 0 0 0 500 A 500.00001 500.00001 0 0 0 500 1000 A 500.00001 500.00001 0 0 0 1000 500 A 500.00001 500.00001 0 0 0 500 0 z M 349.61328 156.81836 C 382.49962 156.93734 415.35072 165.22991 443.94727 181.80664 C 514.94919 169.50275 590.023 181.19611 653.375 215.72266 C 724.08607 253.71059 779.61606 318.95427 805.47461 394.98828 C 823.24692 446.44362 827.37864 502.38052 818.12891 555.98828 C 840.87513 595.98326 848.75581 644.12202 839.53516 689.23633 C 829.79093 739.0046 799.10431 784.11776 756.66602 811.83789 C 697.9098 851.33836 617.19372 853.57671 555.99414 818.14844 C 487.84275 829.8706 415.96964 819.7224 354.30469 788.25 C 282.63374 752.24 225.47626 688.53621 197.52344 613.3457 C 177.27872 559.6216 172.18463 500.51629 181.8125 443.9707 C 158.57179 403.27765 151.04219 354.09387 160.96094 308.31055 C 170.79243 261.53828 199.09056 219.0408 238.21289 191.64062 C 269.62801 168.97166 307.95877 157.31144 346.42969 156.83398 C 347.49047 156.82082 348.55243 156.81452 349.61328 156.81836 z M 350.48633 205.84961 C 322.18235 205.56448 293.78718 213.60142 270.21289 229.42578 C 230.65425 255.1389 205.40354 301.41466 205.83984 348.65234 C 205.2581 379.63024 216.92356 409.24194 233.41602 434.95508 C 222.741 483.99616 223.52791 535.82924 239.32227 583.67773 C 263.95916 661.51518 325.41903 726.43795 401.71484 755.49609 C 453.40287 775.82807 510.9364 778.44788 564.98047 766.60938 C 580.74576 775.77186 596.77346 785.04884 614.66211 789.38281 C 659.51462 801.62856 709.83515 789.93682 744.68164 759.2207 C 780.37168 728.73729 799.33514 679.92804 792.99414 633.35938 C 790.40537 608.63523 779.38431 585.94458 766.58594 564.97266 C 777.43547 515.14623 776.33057 462.38315 759.86719 413.92383 C 733.92139 334.42841 669.40503 268.89495 590.375 241.58203 C 540.72309 223.80974 486.27082 222.18032 434.96094 233.37891 C 421.81348 225.84531 408.72525 217.84558 394.18164 213.2207 C 380.11343 208.43132 365.3122 205.99896 350.48633 205.84961 z M 492.75781 301.83594 C 528.10972 301.92591 563.46119 310.15583 594.5918 327.04102 C 612.74224 337.1052 630.3108 350.71704 638.74609 370.26367 C 644.24359 383.12023 644.85459 399.90374 634.70312 410.66602 C 623.70817 421.92278 605.7609 425.38379 591.01367 420.64258 C 573.93946 413.48711 565.44639 395.59907 550.96094 384.95312 C 532.75234 369.94412 508.23108 365.90138 485.28125 366.30859 C 468.49792 367.03578 450.52306 370.8467 438.27734 383.17969 C 426.96241 395.25089 422.77281 415.93189 433.79688 429.51562 C 444.21012 441.52866 460.29574 446.00806 475.04297 450.10938 C 503.17032 457.14848 531.61762 462.8195 559.86133 469.48047 C 589.23945 476.19962 618.90936 489.05534 638.31055 512.99414 C 671.76087 556.33413 664.22562 625.06825 622.63086 660.55469 C 589.35507 690.02005 543.07798 698.16399 499.9707 698.42578 C 453.95469 697.75677 404.76852 688.33372 369.39844 656.86133 C 351.65522 640.86334 336.73388 616.72046 342.08594 592.02539 C 347.93247 567.47576 381.64359 558.16739 400.75391 573.26367 C 415.35569 584.98582 423.26746 602.81677 437.3457 615.0625 C 454.18721 630.50781 477.66185 636.64445 500.11719 636.0918 C 522.13623 636.67354 545.52091 629.92612 560.61719 613.17188 C 570.88497 601.85694 576.32505 584.6378 569.66406 570.15234 C 564.19566 556.53953 550.14729 549.12202 536.70898 545.45703 C 511.92666 538.97058 486.96982 533.0661 462.1875 526.52148 C 434.96185 519.8605 406.65937 513.77951 383.24414 497.54883 C 364.97735 485.41944 351.13199 466.48508 346.68164 444.90234 C 339.20621 411.04481 344.55821 371.97964 369.16602 346.12109 C 391.67954 321.07697 425.07207 309.44245 457.5625 304.43945 C 469.19012 302.67967 480.97384 301.80595 492.75781 301.83594 z "
     transform="scale(0.74999998)" />
  <metadata
     id="metadata16">
    <rdf:RDF>
      <cc:Work
         rdf:about="">
        <dc:format>image/svg+xml</dc:format>
        <dc:type
           rdf:resource="http://purl.org/dc/dcmitype/StillImage" />
        <dc:title></dc:title>
      </cc:Work>
    </rdf:RDF>
  </metadata>
  <defs
     id="defs14" />
  <sodipodi:namedview
     pagecolor="#ffffff"
     bordercolor="#666666"
     borderopacity="1"
     objecttolerance="10"
     gridtolerance="10"
     guidetolerance="10"
     inkscape:pageopacity="0"
     inkscape:pageshadow="2"
     inkscape:window-width="3840"
     inkscape:window-height="2088"
     id="namedview12"
     showgrid="false"
     inkscape:zoom="0.66468037"
     inkscape:cx="403.35621"
     inkscape:cy="549.65291"
     inkscape:window-x="0"
     inkscape:window-y="35"
     inkscape:window-maximized="1"
     inkscape:current-layer="svg2"
     inkscape:document-rotation="0"
     inkscape:showpageshadow="false"
     units="px" />
</svg>
