<?xml version="1.0" encoding="UTF-8" standalone="no"?>
<svg
   xmlns:dc="http://purl.org/dc/elements/1.1/"
   xmlns:cc="http://creativecommons.org/ns#"
   xmlns:rdf="http://www.w3.org/1999/02/22-rdf-syntax-ns#"
   xmlns:svg="http://www.w3.org/2000/svg"
   xmlns="http://www.w3.org/2000/svg"
   xmlns:sodipodi="http://sodipodi.sourceforge.net/DTD/sodipodi-0.dtd"
   xmlns:inkscape="http://www.inkscape.org/namespaces/inkscape"
   width="1000"
   height="1000"
   version="1.1"
   id="svg7977"
   sodipodi:docname="Slack_Technologies_Logo.svg"
   inkscape:version="1.0.1 (3bc2e813f5, 2020-09-07)">
  <metadata
     id="metadata7983">
    <rdf:RDF>
      <cc:Work
         rdf:about="">
        <dc:format>image/svg+xml</dc:format>
        <dc:type
           rdf:resource="http://purl.org/dc/dcmitype/StillImage" />
        <dc:title></dc:title>
      </cc:Work>
    </rdf:RDF>
  </metadata>
  <defs
     id="defs7981" />
  <sodipodi:namedview
     pagecolor="#ffffff"
     bordercolor="#666666"
     borderopacity="1"
     objecttolerance="10"
     gridtolerance="10"
     guidetolerance="10"
     inkscape:pageopacity="0"
     inkscape:pageshadow="2"
     inkscape:window-width="3840"
     inkscape:window-height="2088"
     id="namedview7979"
     showgrid="false"
     inkscape:zoom="0.76907631"
     inkscape:cx="-126.70941"
     inkscape:cy="451.65474"
     inkscape:window-x="0"
     inkscape:window-y="35"
     inkscape:window-maximized="1"
     inkscape:current-layer="svg7977"
     inkscape:document-rotation="0" />
  <path
     id="path2721"
     style="fill:#dadada;stroke-width:1.75797;stop-color:#000000"
     d="M 500 0 A 500 500 0 0 0 0 500 A 500 500 0 0 0 500 1000 A 500 500 0 0 0 1000 500 A 500 500 0 0 0 500 0 z M 437.85742 125.10352 C 438.70728 125.09394 439.55609 125.09852 440.4043 125.11719 C 466.31304 125.68738 491.282 139.38752 505.20898 163.50977 L 601.43555 330.17773 C 622.65763 366.93544 610.10146 413.79745 573.34375 435.01953 C 536.58604 456.2416 489.72599 443.68544 468.50391 406.92773 L 372.27734 240.25781 C 351.05527 203.5001 363.61143 156.64004 400.36914 135.41797 C 412.21488 128.57882 425.10955 125.24716 437.85742 125.10352 z M 700.75195 195.54688 C 701.60181 195.5373 702.45062 195.54188 703.29883 195.56055 C 729.20757 196.13074 754.17653 209.83089 768.10352 233.95312 C 789.3256 270.71083 776.76943 317.5709 740.01172 338.79297 L 673.54688 377.16602 L 635.17188 310.70117 C 613.94979 273.94346 626.50596 227.08341 663.26367 205.86133 C 675.10942 199.02218 688.00408 195.69052 700.75195 195.54688 z M 271.48047 221.83398 C 272.33033 221.82441 273.17914 221.82899 274.02734 221.84766 C 299.93609 222.41784 324.90504 236.11799 338.83203 260.24023 L 377.20508 326.70508 L 310.74023 365.08008 C 273.98252 386.30215 227.12247 373.74599 205.90039 336.98828 C 184.67832 300.23057 197.23448 253.37051 233.99219 232.14844 C 245.83793 225.30929 258.7326 221.97763 271.48047 221.83398 z M 799.52539 362.22852 C 825.43414 362.79871 850.40309 376.49885 864.33008 400.62109 C 885.55215 437.3788 872.99599 484.23887 836.23828 505.46094 L 669.57031 601.6875 C 632.8126 622.90957 585.95254 610.35341 564.73047 573.5957 C 543.50839 536.83799 556.06456 489.97794 592.82227 468.75586 L 759.49023 372.5293 C 772.1257 365.23421 785.95414 361.92984 799.52539 362.22852 z M 367.41602 387.99805 C 368.26589 387.98847 369.11469 387.99305 369.96289 388.01172 C 395.87164 388.58191 420.84059 402.28205 434.76758 426.4043 C 455.98966 463.16201 443.43349 510.02206 406.67578 531.24414 L 240.50977 627.17969 C 203.75206 648.40176 156.892 635.8456 135.66992 599.08789 C 114.44785 562.33018 127.00401 515.47012 163.76172 494.24805 L 329.92578 398.3125 C 341.77152 391.47335 354.66792 388.14169 367.41602 387.99805 z M 463.64258 554.66797 C 464.49245 554.65841 465.34125 554.66297 466.18945 554.68164 C 492.0982 555.25183 517.0652 568.95002 530.99219 593.07227 L 627.21875 759.74219 C 648.44082 796.4999 635.88466 843.35995 599.12695 864.58203 C 562.36924 885.8041 515.50918 873.24794 494.28711 836.49023 L 398.06055 669.82227 C 376.83847 633.06456 389.39463 586.20254 426.15234 564.98047 C 437.9981 558.14132 450.8945 554.8114 463.64258 554.66797 z M 326.45312 622.54297 L 364.82812 689.00781 C 386.05019 725.76552 373.49404 772.62753 336.73633 793.84961 C 299.97862 815.07168 253.11855 802.51552 231.89648 765.75781 C 210.6744 729.0001 223.23057 682.13809 259.98828 660.91602 L 326.45312 622.54297 z M 728.79297 624.61914 C 754.70171 625.18933 779.67067 638.88947 793.59766 663.01172 C 814.81973 699.76943 802.26357 746.62949 765.50586 767.85156 C 728.74815 789.07364 681.88614 776.51748 660.66406 739.75977 L 622.29102 673.29492 L 688.75586 634.91992 C 701.39132 627.62484 715.22172 624.32047 728.79297 624.61914 z " />
</svg>
