<?xml version="1.0" encoding="UTF-8" standalone="no"?>
<svg
   xmlns:dc="http://purl.org/dc/elements/1.1/"
   xmlns:cc="http://creativecommons.org/ns#"
   xmlns:rdf="http://www.w3.org/1999/02/22-rdf-syntax-ns#"
   xmlns:svg="http://www.w3.org/2000/svg"
   xmlns="http://www.w3.org/2000/svg"
   xmlns:sodipodi="http://sodipodi.sourceforge.net/DTD/sodipodi-0.dtd"
   xmlns:inkscape="http://www.inkscape.org/namespaces/inkscape"
   viewBox="0 0 1000 1000"
   version="1.1"
   id="svg8000"
   sodipodi:docname="Soundcloud.svg"
   width="1000"
   height="1000"
   inkscape:version="1.0.1 (3bc2e813f5, 2020-09-07)">
  <metadata
     id="metadata8004">
    <rdf:RDF>
      <cc:Work
         rdf:about="">
        <dc:format>image/svg+xml</dc:format>
        <dc:type
           rdf:resource="http://purl.org/dc/dcmitype/StillImage" />
        <dc:title></dc:title>
      </cc:Work>
    </rdf:RDF>
  </metadata>
  <sodipodi:namedview
     pagecolor="#ffffff"
     bordercolor="#666666"
     borderopacity="1"
     objecttolerance="10"
     gridtolerance="10"
     guidetolerance="10"
     inkscape:pageopacity="0"
     inkscape:pageshadow="2"
     inkscape:window-width="3840"
     inkscape:window-height="2088"
     id="namedview8002"
     showgrid="false"
     inkscape:zoom="1.3125"
     inkscape:cx="379.14442"
     inkscape:cy="563.60505"
     inkscape:window-x="0"
     inkscape:window-y="35"
     inkscape:window-maximized="1"
     inkscape:current-layer="svg8000" />
  <defs
     id="defs7994">
    <clipPath
       id="clipPath7987">
      <path
         transform="matrix(15.33333,0,0,11.5,415,-125.5)"
         d="m -24,13 c 0,1.105 -0.672,2 -1.5,2 -0.828,0 -1.5,-0.895 -1.5,-2 0,-1.105 0.672,-2 1.5,-2 0.828,0 1.5,0.895 1.5,2"
         fill="#1890d0"
         id="path7985" />
    </clipPath>
    <linearGradient
       id="0"
       gradientUnits="userSpaceOnUse"
       x1="24.610001"
       y1="47.592999"
       x2="23.593"
       y2="-0.20299999">
      <stop
         stop-color="#ff433a"
         id="stop7989" />
      <stop
         stop-color="#ff9436"
         offset="1"
         id="stop7991" />
    </linearGradient>
  </defs>
  <path
     id="rect7996"
     style="fill:#dadada;fill-opacity:1;fill-rule:evenodd;stroke-width:20.8333"
     d="M 500,0 C 223,0 0,223 0,500 c 0,277 223,500 500,500 277,0 500,-223 500,-500 C 1000,223 777,0 500,0 Z m 89.76237,328.04362 c 89.77084,0 163.35188,68.84538 171.10188,156.61621 11.60417,-4.85416 24.30502,-7.56835 37.63835,-7.56835 v 0.0417 c 53.79167,0 97.41211,43.57975 97.41211,97.37141 0,53.77084 -43.64127,97.41211 -97.41211,97.41211 -1.72916,0 -269.64745,-0.20209 -269.89745,-0.20417 -5.8125,-0.60417 -10.4554,-5.55698 -10.53873,-11.51531 V 351.1556 c 0.0625,-5.6875 2.0452,-8.64129 9.39939,-11.4746 18.91667,-7.3125 40.33823,-11.63738 62.29656,-11.63738 z m -91.59343,22.82715 c 5.83333,0 10.65885,4.8265 10.74218,10.7015 l 4.76075,219.36035 -4.76075,79.50846 c -0.10416,5.89584 -4.90885,10.7015 -10.74218,10.7015 -5.85417,0 -10.65886,-4.76693 -10.74219,-10.57943 l -4.39452,-79.63053 4.39452,-219.36035 c 0.0833,-5.91667 4.88802,-10.7015 10.74219,-10.7015 z m -33.32519,18.96158 c 5.4375,0 9.94629,4.46909 10.05046,9.96909 l 4.23177,201.13118 -4.23177,80.72917 c -0.10417,5.52083 -4.59213,10.00975 -10.05046,10.00975 v 0.0417 c -5.4375,-2e-5 -9.96713,-4.51075 -10.05046,-9.96908 0,0 -3.78417,-80.72623 -3.78417,-80.85125 l 3.78417,-201.0498 c 0.0833,-5.54166 4.59213,-10.00977 10.05046,-10.00977 z m -99.32454,23.03061 c 4.35416,0 7.89094,3.49608 8.01596,7.97525 l 5.61523,180.01302 -5.61523,82.56023 c 0,0 0,0.0417 0,0.0417 v 0.0417 c -0.18542,4.41883 -3.68875,7.89388 -8.01596,7.89388 -4.375,0 -7.89096,-3.49707 -8.01596,-7.93457 l -5.00488,-82.60091 4.96419,-180.01302 c 0.125,-4.47917 3.68165,-7.97525 8.05665,-7.97525 z m 32.79623,4.02831 c 4.72916,0 8.58266,3.77215 8.70766,8.62631 l 5.16765,175.41504 -5.16765,81.78711 v 0.0812 c -0.16458,4.8006 -3.96323,8.56369 -8.66698,8.5856 -4.77214,-0.0229 -8.60381,-3.84848 -8.70768,-8.62629 l -4.59798,-81.82779 4.55729,-175.41504 c 0.10417,-4.85417 3.93685,-8.62631 8.70769,-8.62631 z m -65.4704,2.60417 c 3.95833,0 7.15756,3.1595 7.32423,7.24285 l 6.06283,174.15363 -6.10352,83.12989 c -0.14583,4.08334 -3.36589,7.24284 -7.32423,7.24284 v 0.0417 c -3.97916,0 -7.1992,-3.18033 -7.3242,-7.24283 l -5.4118,-83.17058 5.4118,-174.11294 c 0.125,-4.08334 3.36489,-7.28354 7.36489,-7.28354 z m 98.67352,3.05177 c 5.14584,0 9.23371,4.08885 9.35871,9.31802 l 4.72006,169.06739 -4.72006,81.25813 c -0.125,5.25 -4.21287,9.31804 -9.35871,9.31804 -5.14583,0 -9.25456,-4.06998 -9.35873,-9.23667 l -4.19108,-81.3395 4.19108,-169.0267 c 0.10417,-5.22917 4.2129,-9.31802 9.35873,-9.31802 z m -131.02214,10.98631 c 3.5625,0 6.48568,2.92417 6.67318,6.6325 l 6.55111,160.7259 -6.55111,83.94368 c -0.16666,3.70834 -3.11068,6.59182 -6.67318,6.59182 v -0.0417 c -3.58334,0 -6.52734,-2.88444 -6.67317,-6.5511 l -5.778,-83.94369 5.778,-160.7259 c 0.14583,-3.70833 3.08983,-6.6325 6.67317,-6.6325 z m -32.18588,30.59896 c 3.1875,0 5.83465,2.62827 6.02215,5.94077 l 6.99868,130.81867 -6.99868,84.51335 c -0.1875,3.3125 -2.85548,5.94075 -6.02215,5.94075 -3.1875,0 -5.81477,-2.62825 -5.98144,-5.94075 l -6.18489,-84.51335 6.18489,-130.81867 c 0.14584,-3.33333 2.79394,-5.94077 5.98144,-5.94077 z m -63.47656,45.45085 c 2.43751,0 4.61785,1.95313 4.63869,4.55729 l 7.93456,86.66992 -7.93456,83.74025 c -0.20834,2.60417 -2.22202,4.55729 -4.63869,4.55729 -2.45833,-2e-5 -4.45117,-1.95312 -4.63867,-4.55729 l -6.9987,-83.74025 6.9987,-86.66992 c 0.1875,-2.60416 2.18034,-4.55729 4.63867,-4.55729 z m -31.29069,3.01107 c 2.0625,0 3.73763,1.61562 3.98763,3.86556 l 8.38217,84.35058 -8.38217,81.29883 c -0.22916,2.25 -1.92512,3.86557 -3.98763,3.86557 -2.08333,0 -3.9261,-1.65625 -3.94694,-3.90625 l -7.4056,-81.25815 7.4056,-84.35058 c 0.20834,-2.25 1.86361,-3.86556 3.94694,-3.86556 z m 62.94758,2.60416 c 2.83334,0 5.2689,2.22917 5.28973,5.20834 l 7.48698,80.44433 -7.48698,84.51335 c -0.20833,2.97917 -2.47723,5.24902 -5.28973,5.24902 -2.85416,0 -5.14289,-2.26985 -5.33039,-5.24902 l -6.59179,-84.51335 6.59179,-80.40365 c 0.16667,-3 2.47623,-5.24902 5.33039,-5.24902 z m -94.07551,11.31186 c 1.66667,0 2.98438,1.31875 3.25521,3.21452 l 8.87045,71.0856 -8.87045,69.5394 c -0.27083,1.875 -1.58854,3.17383 -3.25521,3.17383 -1.6875,0 -3.06673,-1.29875 -3.29589,-3.17383 l -7.8125,-69.5394 c 0,0 7.8125,-71.08352 7.8125,-71.0856 0.22916,-1.83334 1.62923,-3.21452 3.29589,-3.21452 z m -29.29687,27.22168 c 1.60417,0 2.92383,1.28 3.17383,3.09244 l 6.83593,43.986 -6.83593,43.2129 c -0.27084,1.83333 -1.56967,3.09243 -3.17383,3.09243 -1.64583,3e-5 -3.15299,-1.28 -3.17383,-3.09243 l -5.77799,-43.2129 5.77799,-43.986 c 0.20834,-1.83333 1.528,-3.09244 3.17383,-3.09244 z" />
</svg>
