<?xml version="1.0" encoding="UTF-8" standalone="no"?>
<svg
   xmlns:dc="http://purl.org/dc/elements/1.1/"
   xmlns:cc="http://creativecommons.org/ns#"
   xmlns:rdf="http://www.w3.org/1999/02/22-rdf-syntax-ns#"
   xmlns:svg="http://www.w3.org/2000/svg"
   xmlns="http://www.w3.org/2000/svg"
   xmlns:sodipodi="http://sodipodi.sourceforge.net/DTD/sodipodi-0.dtd"
   xmlns:inkscape="http://www.inkscape.org/namespaces/inkscape"
   viewBox="0 0 1000 1000"
   version="1.1"
   id="svg8024"
   sodipodi:docname="spotify.svg"
   width="1000"
   height="1000"
   inkscape:version="1.0.1 (3bc2e813f5, 2020-09-07)">
  <metadata
     id="metadata8028">
    <rdf:RDF>
      <cc:Work
         rdf:about="">
        <dc:format>image/svg+xml</dc:format>
        <dc:type
           rdf:resource="http://purl.org/dc/dcmitype/StillImage" />
        <dc:title></dc:title>
      </cc:Work>
    </rdf:RDF>
  </metadata>
  <sodipodi:namedview
     pagecolor="#ffffff"
     bordercolor="#666666"
     borderopacity="1"
     objecttolerance="10"
     gridtolerance="10"
     guidetolerance="10"
     inkscape:pageopacity="0"
     inkscape:pageshadow="2"
     inkscape:window-width="3840"
     inkscape:window-height="2088"
     id="namedview8026"
     showgrid="false"
     inkscape:zoom="0.92807765"
     inkscape:cx="263.616"
     inkscape:cy="458.28327"
     inkscape:window-x="0"
     inkscape:window-y="35"
     inkscape:window-maximized="1"
     inkscape:current-layer="svg8024" />
  <defs
     id="defs8016">
    <linearGradient
       id="0"
       x1="51.560001"
       y1="61.459999"
       x2="51.987999"
       y2="14.3"
       gradientUnits="userSpaceOnUse"
       gradientTransform="matrix(0.99999,0,0,0.99999,-28.371,-14.278)">
      <stop
         stop-color="#23cf5f"
         id="stop8006" />
      <stop
         offset="1"
         stop-color="#60ff98"
         id="stop8008" />
    </linearGradient>
    <linearGradient
       id="1"
       gradientUnits="userSpaceOnUse"
       x1="53.57"
       y1="62.470001"
       x2="53.798"
       y2="13.896"
       gradientTransform="matrix(0.99999,0,0,0.99999,-28.371,-14.278)">
      <stop
         stop-color="#2e3436"
         id="stop8011" />
      <stop
         offset="1"
         stop-color="#555753"
         id="stop8013" />
    </linearGradient>
  </defs>
  <path
     d="M 499.99999,0 C 223.85417,0 -4e-6,223.85417 -4e-6,500 -4e-6,776.14584 223.85417,1000 499.99999,1000 776.14584,1000 1000,776.12501 1000,500 1000,223.85417 776.14584,0 499.99999,0 m -73.375,260.95834 c 146.87501,0 301.29168,30.20832 414.12501,96.47917 15.20832,8.60415 25.77082,21.60416 25.77082,45.41666 0,27.25001 -21.91665,46.85416 -47.16666,46.85416 -10.18749,0 -16.22916,-2.47917 -25.77084,-7.70833 -90.49998,-54.27083 -231.04166,-84.16667 -366.77083,-84.16667 -67.79166,0 -136.66666,6.89584 -199.72916,24.02084 -7.27083,1.83335 -16.4375,5.45833 -25.64582,5.45833 -26.66667,0 -47.14585,-21.10417 -47.14585,-47.77083 0,-27.16667 16.83333,-42.41666 35.00002,-47.79167 71.27081,-21.04167 150.83332,-30.79166 237.31247,-30.79166 m -10.18749,171.81249 c 130.87499,0 257.47918,32.60418 357.08334,92.16667 16.6875,9.56251 22.83333,21.72918 22.83333,39.52083 0,21.64584 -17.22917,39.14583 -38.97916,39.14583 -10.85417,0 -17.66668,-4.37498 -25.04167,-8.66665 -81.33333,-48.27083 -194.0625,-80.33334 -317.50001,-80.33334 -63.3125,0 -117.95832,8.875 -163.1875,20.83333 -9.75,2.68751 -15.20832,5.56249 -24.33333,5.56249 -21.49999,0 -39.06249,-17.52082 -39.06249,-39.20833 0,-21.27081 10.31249,-35.89581 31.10416,-41.66666 56.20833,-15.43749 113.60416,-27.35417 197.14583,-27.35417 m 6.85417,163.27084 c 109.41666,0 206.91667,25.10417 290.83332,75.39584 12.47917,7.29165 19.81252,14.75 19.81252,33.22916 0,18.02083 -14.66667,31.27084 -31.10417,31.27084 -8.08333,0 -13.60418,-2.81251 -21.16667,-7.41668 -72.45833,-43.83332 -162.8125,-66.89582 -258.70834,-66.89582 -53.49999,0 -107.35415,6.85415 -157.70832,17.35415 -8.1875,1.77086 -18.5,4.93751 -24.64583,4.93751 C 221.66667,683.91667 209,668.83333 209,652.5 c 0,-21.04166 12.12499,-31.47916 27.20833,-34.35417 61.75,-14.08333 123.27084,-22.10416 187.14583,-22.10416"
     fill="url(#0)"
     id="path8020"
     style="fill:#dadada;fill-opacity:1;stroke-width:20.8333" />
</svg>
