<?xml version="1.0" encoding="UTF-8" standalone="no"?>
<svg
   xmlns:dc="http://purl.org/dc/elements/1.1/"
   xmlns:cc="http://creativecommons.org/ns#"
   xmlns:rdf="http://www.w3.org/1999/02/22-rdf-syntax-ns#"
   xmlns:svg="http://www.w3.org/2000/svg"
   xmlns="http://www.w3.org/2000/svg"
   xmlns:sodipodi="http://sodipodi.sourceforge.net/DTD/sodipodi-0.dtd"
   xmlns:inkscape="http://www.inkscape.org/namespaces/inkscape"
   viewBox="0 0 1000 1000"
   version="1.1"
   id="svg8036"
   sodipodi:docname="Stack_Overflow_icon.svg"
   width="1000"
   height="1000"
   inkscape:version="1.0.1 (3bc2e813f5, 2020-09-07)">
  <metadata
     id="metadata8042">
    <rdf:RDF>
      <cc:Work
         rdf:about="">
        <dc:format>image/svg+xml</dc:format>
        <dc:type
           rdf:resource="http://purl.org/dc/dcmitype/StillImage" />
        <dc:title></dc:title>
      </cc:Work>
    </rdf:RDF>
  </metadata>
  <defs
     id="defs8040" />
  <sodipodi:namedview
     pagecolor="#ffffff"
     bordercolor="#666666"
     borderopacity="1"
     objecttolerance="10"
     gridtolerance="10"
     guidetolerance="10"
     inkscape:pageopacity="0"
     inkscape:pageshadow="2"
     inkscape:window-width="3840"
     inkscape:window-height="2088"
     id="namedview8038"
     showgrid="false"
     inkscape:zoom="0.74246212"
     inkscape:cx="536.3361"
     inkscape:cy="457.19277"
     inkscape:window-x="0"
     inkscape:window-y="35"
     inkscape:window-maximized="1"
     inkscape:current-layer="svg8036"
     inkscape:document-rotation="0" />
  <style
     id="style8030">.st0{fill:#bcbbbb}.st1{fill:#f48023}</style>
  <path
     id="path3425"
     style="fill:#dadada;stroke-width:1.75797;stop-color:#000000;fill-opacity:1"
     d="M 500 0 A 500 500 0 0 0 0 500 A 500 500 0 0 0 500 1000 A 500 500 0 0 0 1000 500 A 500 500 0 0 0 500 0 z M 609.8125 131.08789 L 796.20898 382.31836 L 745.96289 419.59766 L 559.56641 168.36719 L 609.8125 131.08789 z M 493.92188 231.58008 L 734.61719 431.75391 L 694.90625 479.56836 L 454.21094 279.39453 L 493.92188 231.58008 z M 401.5332 361.24805 L 685.18164 494.15625 L 659.24805 550.88477 L 375.60156 418.78711 L 401.5332 361.24805 z M 348.04688 503.07031 L 654.38477 567.09375 L 641.41797 628.68555 L 335.08008 564.66211 L 348.04688 503.07031 z M 203.79102 582.49219 L 266.19336 582.49219 L 266.19336 770.50977 L 704.63086 770.50977 L 704.63086 582.49219 L 767.0332 582.49219 L 767.0332 832.91211 L 203.79102 832.91211 L 203.79102 582.49219 z M 328.5957 644.89453 L 641.41797 644.89453 L 641.41797 707.29688 L 328.5957 707.29688 L 328.5957 644.89453 z " />
</svg>
