<?xml version="1.0" encoding="UTF-8" standalone="no"?>
<svg
   xmlns:dc="http://purl.org/dc/elements/1.1/"
   xmlns:cc="http://creativecommons.org/ns#"
   xmlns:rdf="http://www.w3.org/1999/02/22-rdf-syntax-ns#"
   xmlns:svg="http://www.w3.org/2000/svg"
   xmlns="http://www.w3.org/2000/svg"
   xmlns:xlink="http://www.w3.org/1999/xlink"
   xmlns:sodipodi="http://sodipodi.sourceforge.net/DTD/sodipodi-0.dtd"
   xmlns:inkscape="http://www.inkscape.org/namespaces/inkscape"
   height="1000"
   width="1000"
   viewBox="0 0 1000 1000"
   version="1.1"
   id="svg8141"
   sodipodi:docname="Vine_logo.svg"
   inkscape:version="1.0.1 (3bc2e813f5, 2020-09-07)">
  <metadata
     id="metadata8145">
    <rdf:RDF>
      <cc:Work
         rdf:about="">
        <dc:format>image/svg+xml</dc:format>
        <dc:type
           rdf:resource="http://purl.org/dc/dcmitype/StillImage" />
        <dc:title></dc:title>
      </cc:Work>
    </rdf:RDF>
  </metadata>
  <sodipodi:namedview
     pagecolor="#ffffff"
     bordercolor="#666666"
     borderopacity="1"
     objecttolerance="10"
     gridtolerance="10"
     guidetolerance="10"
     inkscape:pageopacity="0"
     inkscape:pageshadow="2"
     inkscape:window-width="3840"
     inkscape:window-height="2088"
     id="namedview8143"
     showgrid="false"
     inkscape:zoom="0.60576923"
     inkscape:cx="377.71303"
     inkscape:cy="670.5307"
     inkscape:window-x="0"
     inkscape:window-y="35"
     inkscape:window-maximized="1"
     inkscape:current-layer="svg8141"
     inkscape:document-rotation="0" />
  <defs
     id="defs8129">
  </defs>
  <path
     id="rect8135"
     style="fill:#dadada;fill-opacity:1;stroke-width:5"
     d="M 500,0 C 223,0 0,223 0,500 c 0,277 223,500 500,500 277,0 500,-223 500,-500 C 1000,223 777,0 500,0 Z m 146.99143,161.63509 c 96.95315,0 149.84624,60.35329 149.84624,164.10998 0,38.56043 -8.30847,82.51237 -23.60856,116.45122 -71.97877,14.09607 -98.32637,-31.8341 -98.32637,-31.8341 5.41555,-17.75022 12.78504,-47.75133 12.78504,-75.12851 0,-48.15585 -17.6694,-71.87321 -44.11594,-71.87321 -27.81357,0 -47.47392,26.4422 -47.47392,77.29528 0,103.76196 65.82477,163.41169 151.26342,163.41169 15.19493,0 32.02056,-1.73301 49.47633,-5.78149 v 80.64299 c -28.44449,6.41447 -57.05124,9.14851 -80.86891,9.20108 C 659.29008,707.95444 556.97512,810.2175 522.92059,829.56607 501.21654,841.76408 480.79881,842.50143 457.05475,828.20031 415.0978,803.17336 256.41294,672.84557 203.16232,263.36047 H 318.41207 C 347.39286,509.22399 418.01874,635.19809 496.14911,729.62751 539.20493,686.56644 580.47826,629.36114 612.91866,564.48034 535.78728,525.31001 488.98129,439.40779 488.98129,339.3105 c 0,-101.04369 58.32296,-177.67541 158.01014,-177.67541 z"
     sodipodi:nodetypes="sssssssccsssscccccccccss" />
</svg>
