<?xml version="1.0" encoding="UTF-8" standalone="no"?>
<svg
   xmlns:dc="http://purl.org/dc/elements/1.1/"
   xmlns:cc="http://creativecommons.org/ns#"
   xmlns:rdf="http://www.w3.org/1999/02/22-rdf-syntax-ns#"
   xmlns:svg="http://www.w3.org/2000/svg"
   xmlns="http://www.w3.org/2000/svg"
   xmlns:sodipodi="http://sodipodi.sourceforge.net/DTD/sodipodi-0.dtd"
   xmlns:inkscape="http://www.inkscape.org/namespaces/inkscape"
   viewBox="0 0 1000 1000"
   enable-background="new 0 0 50 50"
   version="1.1"
   id="svg8149"
   sodipodi:docname="VK.svg"
   width="1000"
   height="1000"
   inkscape:version="1.0.1 (3bc2e813f5, 2020-09-07)">
  <metadata
     id="metadata8155">
    <rdf:RDF>
      <cc:Work
         rdf:about="">
        <dc:format>image/svg+xml</dc:format>
        <dc:type
           rdf:resource="http://purl.org/dc/dcmitype/StillImage" />
        <dc:title></dc:title>
      </cc:Work>
    </rdf:RDF>
  </metadata>
  <defs
     id="defs8153" />
  <sodipodi:namedview
     pagecolor="#ffffff"
     bordercolor="#666666"
     borderopacity="1"
     objecttolerance="10"
     gridtolerance="10"
     guidetolerance="10"
     inkscape:pageopacity="0"
     inkscape:pageshadow="2"
     inkscape:window-width="3840"
     inkscape:window-height="2088"
     id="namedview8151"
     showgrid="false"
     inkscape:zoom="0.89095455"
     inkscape:cx="516.31756"
     inkscape:cy="362.4755"
     inkscape:window-x="0"
     inkscape:window-y="35"
     inkscape:window-maximized="1"
     inkscape:current-layer="svg8149"
     inkscape:document-rotation="0" />
  <path
     id="path6563"
     style="fill:#dadada;stroke-width:1.75797;stop-color:#000000;fill-opacity:1"
     d="M 500 0 A 500 500 0 0 0 0 500 A 500 500 0 0 0 500 1000 A 500 500 0 0 0 1000 500 A 500 500 0 0 0 500 0 z M 470.1543 285.9082 C 503.02382 285.9082 512.41518 288.2557 524.1543 290.60352 C 564.06729 299.99482 549.98047 335.21274 549.98047 419.73438 C 549.98047 445.56042 545.28578 485.47377 564.06836 497.21289 C 571.11183 501.90853 592.24242 497.21321 643.89453 410.34375 C 667.37276 368.08294 686.1543 318.77734 686.1543 318.77734 C 686.1543 318.77734 688.50145 311.7347 695.54492 307.03906 C 700.24057 302.34341 709.63281 304.69141 709.63281 304.69141 L 827.02344 304.69141 C 827.02344 304.69141 862.24186 299.99493 866.9375 316.42969 C 871.63313 335.21227 852.84904 372.7787 805.89258 436.16992 C 728.41441 541.82196 719.02462 530.0816 784.76367 591.125 C 848.15489 649.82058 859.89241 677.99398 862.24023 680.3418 C 888.06627 724.95044 834.06641 727.29883 834.06641 727.29883 L 730.76367 729.64648 C 730.76367 729.64648 709.63286 734.3433 681.45898 713.21289 C 643.89381 687.38683 606.32818 616.95246 578.1543 626.34375 C 549.98042 635.73504 549.98047 696.77734 549.98047 696.77734 C 549.98047 696.77734 549.98097 710.86473 542.9375 717.9082 C 535.89403 724.95167 521.80664 727.29883 521.80664 727.29883 L 474.84961 727.29883 C 474.84961 727.29883 373.89323 734.34295 282.32812 635.73438 C 183.71956 532.43016 96.851562 330.51758 96.851562 330.51758 C 96.851562 330.51758 92.155923 318.77785 96.851562 311.73438 C 103.89503 304.6909 120.32812 304.69141 120.32812 304.69141 L 230.67578 304.69141 C 230.67578 304.69141 242.41552 307.03873 249.45898 311.73438 C 256.50245 316.43003 258.84961 325.82227 258.84961 325.82227 C 258.84961 325.82227 277.6331 372.77842 301.11133 412.69141 C 348.0678 492.51739 369.19804 511.29949 385.63281 501.9082 C 409.11104 490.16909 402.06836 389.21289 402.06836 389.21289 C 402.06836 389.21289 402.06708 353.99564 392.67578 332.86523 C 383.28449 321.12612 364.50245 316.42969 357.45898 316.42969 C 350.41551 316.42969 359.80759 302.3423 373.89453 295.29883 C 392.67711 285.90754 427.89348 285.9082 470.1543 285.9082 z " />
</svg>
