<?xml version="1.0" encoding="UTF-8" standalone="no"?>
<svg
   xmlns:dc="http://purl.org/dc/elements/1.1/"
   xmlns:cc="http://creativecommons.org/ns#"
   xmlns:rdf="http://www.w3.org/1999/02/22-rdf-syntax-ns#"
   xmlns:svg="http://www.w3.org/2000/svg"
   xmlns="http://www.w3.org/2000/svg"
   xmlns:sodipodi="http://sodipodi.sourceforge.net/DTD/sodipodi-0.dtd"
   xmlns:inkscape="http://www.inkscape.org/namespaces/inkscape"
   version="1.1"
   id="Layer_1"
   x="0px"
   y="0px"
   viewBox="0 0 2062.6957 2062.6957"
   width="1000"
   height="1000"
   enable-background="new 0 0 724.7 587.1"
   xml:space="preserve"
   sodipodi:docname="Weibo.svg"
   inkscape:version="1.0.1 (3bc2e813f5, 2020-09-07)"><metadata
   id="metadata8172"><rdf:RDF><cc:Work
       rdf:about=""><dc:format>image/svg+xml</dc:format><dc:type
         rdf:resource="http://purl.org/dc/dcmitype/StillImage" /><dc:title></dc:title></cc:Work></rdf:RDF></metadata><defs
   id="defs8170" /><sodipodi:namedview
   pagecolor="#ffffff"
   bordercolor="#666666"
   borderopacity="1"
   objecttolerance="10"
   gridtolerance="10"
   guidetolerance="10"
   inkscape:pageopacity="0"
   inkscape:pageshadow="2"
   inkscape:window-width="3840"
   inkscape:window-height="2088"
   id="namedview8168"
   showgrid="false"
   inkscape:zoom="0.88536762"
   inkscape:cx="11.465545"
   inkscape:cy="414.74488"
   inkscape:window-x="0"
   inkscape:window-y="35"
   inkscape:window-maximized="1"
   inkscape:current-layer="Layer_1"
   inkscape:document-rotation="0" />

<path
   id="path7209"
   style="fill:#dadada;stroke-width:1.75797;stop-color:#000000"
   d="M 500 0 A 500.00002 500.00002 0 0 0 0 500 A 500.00002 500.00002 0 0 0 500 1000 A 500.00002 500.00002 0 0 0 1000 500 A 500.00002 500.00002 0 0 0 500 0 z M 690.85156 170.92383 C 749.66374 170.85448 808.2709 194.74303 850.79102 241.9082 C 904.14959 300.98378 918.61018 381.58224 895.74219 452.0918 L 895.74219 452.20312 C 890.4736 468.45732 872.9874 477.42485 856.62109 472.15625 C 840.25484 466.88765 831.28605 449.40144 836.55469 433.03516 C 852.80885 382.81531 842.49648 325.53279 804.60742 283.49609 C 766.71836 241.45939 710.78065 225.42847 659.10352 236.41406 C 642.28887 240.00119 625.81176 229.35374 622.22461 212.53906 C 618.63746 195.83648 629.28687 179.24533 646.10156 175.6582 C 660.85644 172.51596 675.86022 170.94151 690.85156 170.92383 z M 431.63477 263.81055 C 452.34803 263.4993 469.51929 268.97779 481.42969 280.91797 C 501.1589 300.75929 503.06355 334.94951 490.39648 375.86523 C 483.67063 396.37914 509.67773 385.05664 509.67773 385.05664 C 592.40598 350.4184 664.59645 348.40152 690.93945 386.06641 C 705.06379 406.24402 703.72017 434.37952 690.7168 467 C 684.77564 482.02112 692.62067 484.26324 704.05469 487.73828 C 750.6874 502.19887 802.5887 537.17435 802.47656 598.82812 C 802.47656 700.72512 655.51717 829.07617 434.57227 829.07617 C 266.08918 829.07617 93.794922 747.35765 93.794922 613.06445 C 93.794922 542.77905 138.29849 461.50815 214.86133 384.94531 C 290.02119 309.78544 374.36867 264.67107 431.63477 263.81055 z M 692.63867 281.38086 C 720.68563 281.75657 748.52993 293.38543 768.84766 315.89258 C 794.85435 344.70173 801.80474 383.93557 790.70703 418.34961 C 786.11106 432.47394 771.08918 440.0972 756.96484 435.61328 C 742.84051 431.01727 735.21925 415.88333 739.70312 401.87109 C 745.19594 385.05641 741.71975 365.888 729.05273 351.76367 C 716.38567 337.75144 697.5541 332.37108 680.29102 336.07031 C 665.94251 339.20905 651.70516 330.01726 648.56641 315.55664 C 645.53974 301.09602 654.73272 286.74734 669.19336 283.7207 C 676.9176 282.05325 684.78552 281.27566 692.63867 281.38086 z M 440.68359 459.33789 C 428.46917 459.32264 416.01921 459.92128 403.4082 461.17188 C 269.00287 474.51152 166.99465 556.7899 175.73828 645.12305 C 184.48192 733.34406 300.61537 794.21463 435.13281 780.875 C 569.53814 767.64746 671.54715 685.255 662.69141 596.92188 C 654.86909 516.97158 558.75634 459.48531 440.68359 459.33789 z M 411.94141 524.67969 C 424.17811 524.55029 436.47118 525.96983 448.47266 529.10156 C 514.7225 546.25257 548.57497 608.69217 521.44727 669.44922 C 493.9833 731.43936 415.06772 764.61927 348.0332 742.98438 C 283.46484 722.13418 256.00057 658.23863 284.36133 600.73242 C 306.94904 554.91945 358.9157 525.24041 411.94141 524.67969 z M 429.79688 599.74805 C 423.41255 599.86364 416.9178 603.48008 413.38672 609.36523 C 408.7907 617.21205 411.25512 626.29213 419.32617 629.54297 C 427.39722 632.9059 437.82314 629.09453 442.53125 621.02344 C 447.01516 612.84031 444.10034 603.76024 436.0293 600.8457 C 434.03956 600.06101 431.92496 599.70952 429.79688 599.74805 z M 368.11719 618.69336 C 351.15012 618.47266 333.60008 627.30038 323.93164 642.43359 C 310.92829 662.7233 317.09469 686.82401 337.7207 696.24023 C 358.683 705.76854 386.5943 696.68928 399.59766 675.95117 C 412.37681 654.98889 405.65057 631.11116 384.57617 622.03125 C 379.36362 619.84534 373.77288 618.76693 368.11719 618.69336 z "
   transform="scale(2.0626957)" />









</svg>
